<svg xmlns="http://www.w3.org/2000/svg" width="30" height="30" viewBox="0 0 30 30">
  <g id="레이어_2" data-name="레이어 2">
    <g id="레이어_1-2" data-name="레이어 1">
      <g>
        <circle cx="15" cy="15" r="15" fill="#4263eb"/>
        <g>
          <path d="M12.7,16.87H10.1l-.56,2.06H7.92l2.56-8h1.88l2.57,8H13.26Zm-.35-1.24-.24-.88c-.25-.83-.46-1.75-.7-2.61h0c-.21.87-.45,1.78-.68,2.61l-.24.88Z" fill="#fff"/>
          <path d="M15.74,17.23V10.3h1.58v7c0,.36.17.48.33.48l.21,0,.2,1.18a2.35,2.35,0,0,1-.83.14C16.13,19.08,15.74,18.35,15.74,17.23Z" fill="#fff"/>
          <path d="M19.15,17.23V10.3h1.58v7c0,.36.17.48.32.48l.22,0,.19,1.18a2.25,2.25,0,0,1-.82.14C19.54,19.08,19.15,18.35,19.15,17.23Z" fill="#fff"/>
        </g>
      </g>
    </g>
  </g>
</svg>
