<svg xmlns="http://www.w3.org/2000/svg" width="12" height="12" viewBox="0 0 12 12">
  <g id="레이어_2" data-name="레이어 2">
    <g id="레이어_1-2" data-name="레이어 1">
      <g>
        <path d="M11.09,12a.9.9,0,0,1-.64-.27L.27,1.55A.89.89,0,0,1,.27.27a.89.89,0,0,1,1.28,0L11.73,10.45A.91.91,0,0,1,11.09,12Z" fill="#999"/>
        <path d="M.91,12a.89.89,0,0,1-.64-.27.89.89,0,0,1,0-1.28L10.45.27a.89.89,0,0,1,1.28,0,.89.89,0,0,1,0,1.28L1.55,11.73A.9.9,0,0,1,.91,12Z" fill="#999"/>
      </g>
    </g>
  </g>
</svg>
