<svg xmlns="http://www.w3.org/2000/svg" width="19.02" height="23" viewBox="0 0 19.02 23">
  <g id="레이어_2" data-name="레이어 2">
    <g id="레이어_1-2" data-name="레이어 1">
      <g>
        <path d="M16.4,3.38V19.07h1.31V1.31H3.93V2.62H15.64A.76.76,0,0,1,16.4,3.38Z" fill="none"/>
        <path d="M18.26,0H3.38a.76.76,0,0,0-.76.76V2.62H.76A.76.76,0,0,0,0,3.38V22.24A.76.76,0,0,0,.76,23H15.64a.76.76,0,0,0,.76-.76V20.38h1.86a.76.76,0,0,0,.76-.76V.76A.76.76,0,0,0,18.26,0ZM15.09,21.69H1.31V3.93H15.09V21.69Zm2.62-2.62H16.4V3.38a.76.76,0,0,0-.76-.76H3.93V1.31H17.71Z" fill="#f2f2f2"/>
      </g>
    </g>
  </g>
</svg>
