<svg xmlns="http://www.w3.org/2000/svg" width="21.71" height="20" viewBox="0 0 21.71 20">
  <g id="레이어_2" data-name="레이어 2">
    <g id="레이어_1-2" data-name="레이어 1">
      <g>
        <path d="M6.13,14.57h0l-2.45-.1a.82.82,0,0,1-.78-.78l-.11-2.46a.58.58,0,0,1,.17-.41l8.48-8.49a.59.59,0,0,1,.4-.16.55.55,0,0,1,.39.16L15,5.13a.57.57,0,0,1,0,.8L6.52,14.41A.57.57,0,0,1,6.13,14.57ZM4,13.36l1.93.08,7.92-7.91-2-2L3.89,11.43Z" fill="#f2f2f2"/>
        <path d="M15.73,5a.54.54,0,0,1-.39-.17L12.54,2a.56.56,0,0,1,0-.79l.75-.75a1.56,1.56,0,0,1,2.21,0l1.38,1.38a1.56,1.56,0,0,1,0,2.21l-.75.75A.56.56,0,0,1,15.73,5Zm-2-3.37,2,2,.36-.35A.46.46,0,0,0,16.22,3a.46.46,0,0,0-.13-.32L14.71,1.25a.45.45,0,0,0-.63,0Z" fill="#f2f2f2"/>
        <path d="M2.62,15.28a.57.57,0,0,1-.39-1l.82-.82a.56.56,0,1,1,.79.79L3,15.11A.58.58,0,0,1,2.62,15.28Z" fill="#f2f2f2"/>
        <path d="M20.1,16.8a.59.59,0,0,1-.39-.16.57.57,0,0,1,0-.8c.68-.68,1-1.33.84-1.72s-.85-.61-1.8-.61a12.26,12.26,0,0,0-7.55,3.13.57.57,0,0,1-.79,0,.57.57,0,0,1,0-.8,13.39,13.39,0,0,1,8.34-3.45c2,0,2.63.82,2.84,1.3s.33,1.53-1.09,3A.59.59,0,0,1,20.1,16.8Z" fill="#f2f2f2"/>
        <path d="M3,20C1,20,.33,19.18.12,18.69s-.33-1.52,1.09-2.94a.56.56,0,1,1,.79.79c-.68.68-1,1.34-.84,1.72s.85.62,1.8.62a12.26,12.26,0,0,0,7.55-3.13.56.56,0,1,1,.79.79A13.34,13.34,0,0,1,3,20Z" fill="#f2f2f2"/>
      </g>
    </g>
  </g>
</svg>
