<svg xmlns="http://www.w3.org/2000/svg" width="214.25" height="200" viewBox="0 0 214.25 200">
  <g id="레이어_2" data-name="레이어 2">
    <g id="레이어_1-2" data-name="레이어 1">
      <g>
        <g>
          <g>
            <path d="M47.43,198.11a34,34,0,0,1-13-2.58,1.87,1.87,0,0,1-1.13-1.37,1.9,1.9,0,0,1,.52-1.71L51.2,175l-2.51-12.24-12.23-2.51L19,177.76a1.9,1.9,0,0,1-1.33.55,1.5,1.5,0,0,1-.37,0,1.89,1.89,0,0,1-1.38-1.12,34.21,34.21,0,0,1,31.53-47.41,34.43,34.43,0,0,1,8.47,1.06L91.38,95.32a1.88,1.88,0,0,1,2.68,0l22,22a1.9,1.9,0,0,1,0,2.68L80.58,155.56a34.22,34.22,0,0,1-33.15,42.55Z" fill="#292a2d"/>
            <path d="M92.72,96.66l22,22L78.47,155a32.31,32.31,0,0,1-43.35,38.79l18.14-18.14-3-14.46-14.46-3L17.65,176.42a32.31,32.31,0,0,1,38.81-43.51L92.72,96.66m0-3.79A3.8,3.8,0,0,0,90,94L55.31,128.72a36.09,36.09,0,0,0-41.15,49.16,3.76,3.76,0,0,0,2.76,2.25,3.54,3.54,0,0,0,.73.07,3.77,3.77,0,0,0,2.67-1.11l16.75-16.75,10,2.06,2.06,10-16.7,16.7a3.77,3.77,0,0,0,1.23,6.17A35.76,35.76,0,0,0,47.43,200a36.12,36.12,0,0,0,36.08-36.08,36.83,36.83,0,0,0-.84-7.77l34.77-34.77a3.78,3.78,0,0,0,0-5.35l-22-22a3.78,3.78,0,0,0-2.67-1.11Z" fill="gray"/>
          </g>
          <g>
            <path d="M134.19,101.17a1.9,1.9,0,0,1-1.34-.56l-22-22a1.88,1.88,0,0,1,0-2.68l28.08-28.08A34.2,34.2,0,0,1,172,5.16a34.06,34.06,0,0,1,13.13,2.61,1.89,1.89,0,0,1,.61,3.09L167.24,29.37l2.51,12.24L182,44.12,200.5,25.61a1.89,1.89,0,0,1,1.34-.56,1.47,1.47,0,0,1,.36,0,1.87,1.87,0,0,1,1.38,1.13,33.84,33.84,0,0,1,2.62,13.12,34.18,34.18,0,0,1-42.55,33.15l-28.12,28.12A1.89,1.89,0,0,1,134.19,101.17Z" fill="#292a2d"/>
            <path d="M172,7.05a32.16,32.16,0,0,1,12.4,2.47L165.18,28.75l3,14.46,14.46,3,19.23-19.23a32.3,32.3,0,0,1-38.76,43.44l-28.89,28.9-22-22L141,48.37A32.32,32.32,0,0,1,172,7.05m0-3.78a36.11,36.11,0,0,0-36.07,36.07,36.51,36.51,0,0,0,.86,7.88L109.47,74.55a3.79,3.79,0,0,0,0,5.36l22.05,22a3.78,3.78,0,0,0,5.35,0l27.37-27.37a36.09,36.09,0,0,0,41.09-49.09,3.8,3.8,0,0,0-2.76-2.26,3.61,3.61,0,0,0-.73-.07,3.78,3.78,0,0,0-2.68,1.11L181.37,42.06l-10-2.06-2-10L187.09,12.2A3.79,3.79,0,0,0,185.87,6,35.9,35.9,0,0,0,172,3.27Z" fill="gray"/>
          </g>
        </g>
        <g>
          <path d="M194.89,196.88a17.37,17.37,0,0,1-12.36-5.12L68.82,78.05a1.88,1.88,0,0,1-.56-1.34,1.85,1.85,0,0,1,.56-1.33l22-22a1.88,1.88,0,0,1,2.68,0L207.25,167a17.48,17.48,0,0,1-12.36,29.84Z" fill="#4d4d4d"/>
          <path d="M92.2,54.67l21.26,21.25,22,22,70.41,70.4a15.59,15.59,0,1,1-22,22L113.46,120l-22-22L70.16,76.71l22-22m0-3.79A3.76,3.76,0,0,0,89.53,52L67.48,74a3.78,3.78,0,0,0,0,5.35l21.25,21.25,22,22,70.41,70.41a19.37,19.37,0,0,0,27.39-27.4l-70.4-70.41L116.13,73.24,94.88,52a3.78,3.78,0,0,0-2.68-1.11Z" fill="gray"/>
        </g>
        <g>
          <path d="M33.63,98a3.14,3.14,0,0,1-2.24-.93L2.82,68.54a3.16,3.16,0,0,1,0-4.48l13-13a1.85,1.85,0,0,1,1.34-.55h0a1.86,1.86,0,0,1,1.34.58,5.35,5.35,0,0,0,3.89,1.66l.44,0a5.37,5.37,0,0,0,3.27-9.24,1.91,1.91,0,0,1,0-2.71L56.54,10.33l.2-.17a46.44,46.44,0,0,1,26-8.27c13,0,24.86,6,35.38,17.67a1.89,1.89,0,0,1-1.41,3.15,2,2,0,0,1-.59-.09,68.36,68.36,0,0,0-18.51-3.08c-6.94,0-11.83,1.71-14.53,5.09l-.13.14c-.11.12-3.07,3.39-.21,9.06l6.88,6.88a1.87,1.87,0,0,1,0,2.67L59.17,73.81a1.91,1.91,0,0,1-2.68,0,5.34,5.34,0,0,0-3.8-1.58H52.4a5.41,5.41,0,0,0-5.08,5.09,5.29,5.29,0,0,0,1.56,4.08,1.88,1.88,0,0,1,0,2.68l-13,13A3.12,3.12,0,0,1,33.63,98Z" fill="#4d4d4d"/>
          <path d="M82.71,3.78c10.09,0,22.15,3.88,34,17a69.75,69.75,0,0,0-19.1-3.17c-6.22,0-12.44,1.35-16,5.79,0,0-4.21,4.3-.4,11.52L88.25,42,57.83,72.47a7.25,7.25,0,0,0-5.14-2.13h-.38a7.27,7.27,0,0,0-4.76,12.4l-.69.69L34.53,95.77a1.28,1.28,0,0,1-.9.38,1.27,1.27,0,0,1-.9-.38L4.15,67.2a1.29,1.29,0,0,1,0-1.8l12.2-12.2.83-.82a7.24,7.24,0,0,0,5.25,2.24l.58,0a7.27,7.27,0,0,0,4.44-12.5L57.88,11.67A44.82,44.82,0,0,1,82.71,3.78m0-3.78V0A48.36,48.36,0,0,0,55.6,8.66a2.5,2.5,0,0,0-.39.34L24.78,39.43a3.77,3.77,0,0,0,.06,5.4,3.46,3.46,0,0,1,1.06,2.81,3.5,3.5,0,0,1-3.18,3.19h-.29a3.47,3.47,0,0,1-2.52-1.08,3.82,3.82,0,0,0-2.69-1.17h0A3.78,3.78,0,0,0,14.5,49.7l-.82.82L1.48,62.72a5.06,5.06,0,0,0,0,7.15L30.05,98.45a5.06,5.06,0,0,0,7.15,0L49.53,86.12l.69-.69a3.78,3.78,0,0,0,0-5.35,3.46,3.46,0,0,1-1-2.66,3.52,3.52,0,0,1,3.3-3.29h.19a3.46,3.46,0,0,1,2.46,1,3.8,3.8,0,0,0,5.35,0L90.93,44.72a3.78,3.78,0,0,0,0-5.35l-6.66-6.66c-1.89-4-.29-6.25,0-6.65a1.38,1.38,0,0,0,.21-.25c2.33-2.9,6.72-4.37,13.06-4.37a66.09,66.09,0,0,1,17.91,3,3.76,3.76,0,0,0,1.19.2,3.78,3.78,0,0,0,2.82-6.31A57.92,57.92,0,0,0,100.61,3.92,43,43,0,0,0,82.71,0Z" fill="gray"/>
        </g>
      </g>
    </g>
  </g>
</svg>
