<svg xmlns="http://www.w3.org/2000/svg" width="20.48" height="20" viewBox="0 0 20.48 20">
  <g id="레이어_2" data-name="레이어 2">
    <g id="레이어_1-2" data-name="레이어 1">
      <g>
        <path d="M19.88,3.61H5.42a.6.6,0,0,1,0-1.2H19.88a.6.6,0,0,1,0,1.2Z" fill="#f2f2f2"/>
        <path d="M3,6A3,3,0,1,1,6,3,3,3,0,0,1,3,6ZM3,1.2A1.81,1.81,0,1,0,4.82,3,1.82,1.82,0,0,0,3,1.2Z" fill="#f2f2f2"/>
        <path d="M19.88,10.6h-7a.6.6,0,1,1,0-1.2h7a.6.6,0,0,1,0,1.2Z" fill="#f2f2f2"/>
        <path d="M7.83,10.6H.6a.6.6,0,0,1,0-1.2H7.83a.6.6,0,0,1,0,1.2Z" fill="#f2f2f2"/>
        <path d="M10.24,13a3,3,0,1,1,3-3A3,3,0,0,1,10.24,13Zm0-4.82A1.81,1.81,0,1,0,12.05,10,1.81,1.81,0,0,0,10.24,8.19Z" fill="#f2f2f2"/>
        <path d="M14.82,17.59H.6a.6.6,0,0,1,0-1.2H14.82a.6.6,0,0,1,0,1.2Z" fill="#f2f2f2"/>
        <path d="M17.47,20a3,3,0,1,1,3-3A3,3,0,0,1,17.47,20Zm0-4.82A1.81,1.81,0,1,0,19.28,17,1.81,1.81,0,0,0,17.47,15.18Z" fill="#f2f2f2"/>
      </g>
    </g>
  </g>
</svg>
