<svg xmlns="http://www.w3.org/2000/svg" width="18" height="18" viewBox="0 0 18 18">
  <g id="레이어_2" data-name="레이어 2">
    <g id="레이어_1-2" data-name="레이어 1">
      <g>
        <g>
          <circle cx="9" cy="9" r="8.49" fill="#0ca678"/>
          <path d="M9,18a9,9,0,1,1,9-9A9,9,0,0,1,9,18ZM9,1a8,8,0,1,0,8,8A8,8,0,0,0,9,1Z" fill="none"/>
        </g>
        <g>
          <g>
            <circle cx="5.33" cy="7.61" r="0.65" fill="#4c4c4c"/>
            <path d="M5.33,8.76A1.16,1.16,0,1,1,6.49,7.61,1.16,1.16,0,0,1,5.33,8.76Zm0-1.29a.13.13,0,0,0-.13.14.13.13,0,0,0,.13.13.13.13,0,0,0,.14-.13A.14.14,0,0,0,5.33,7.47Z" fill="#4c4c4c"/>
          </g>
          <g>
            <circle cx="12.67" cy="7.61" r="0.65" fill="#4c4c4c"/>
            <path d="M12.67,8.76a1.16,1.16,0,1,1,1.15-1.15A1.16,1.16,0,0,1,12.67,8.76Zm0-1.29a.14.14,0,0,0-.14.14.13.13,0,0,0,.14.13.13.13,0,0,0,.13-.13A.13.13,0,0,0,12.67,7.47Z" fill="#4c4c4c"/>
          </g>
        </g>
        <g>
          <path d="M12.33,12.74A4.49,4.49,0,0,1,9,14a4.46,4.46,0,0,1-3.34-1.31" fill="none"/>
          <path d="M9,14.54a4.94,4.94,0,0,1-3.72-1.48.52.52,0,0,1,0-.72.51.51,0,0,1,.72.05,4,4,0,0,0,3,1.13,4,4,0,0,0,2.93-1.12.51.51,0,0,1,.77.67A4.94,4.94,0,0,1,9,14.54Z" fill="#4c4c4c"/>
        </g>
      </g>
    </g>
  </g>
</svg>
