<svg xmlns="http://www.w3.org/2000/svg" width="20" height="17.15" viewBox="0 0 20 17.15">
  <g id="레이어_2" data-name="레이어 2">
    <g id="레이어_1-2" data-name="레이어 1">
      <path d="M15,0a4.77,4.77,0,0,1,2,.4A5,5,0,0,1,19.6,3.09a4.77,4.77,0,0,1,.4,2,5,5,0,0,1-1.48,3.57L10,17.15,1.48,8.62A5,5,0,0,1,0,5.05a4.77,4.77,0,0,1,.4-2A5,5,0,0,1,3.09.4a4.77,4.77,0,0,1,2-.4A5.05,5.05,0,0,1,6.51.2,4.92,4.92,0,0,1,7.69.76a7,7,0,0,1,1,.81c.32.3.65.63,1,1l.29.3.32-.33c.34-.34.67-.67,1-1a6.48,6.48,0,0,1,1-.81A4.47,4.47,0,0,1,13.5.2,4.93,4.93,0,0,1,15,0Z" fill="#ff6e6e"/>
    </g>
  </g>
</svg>
