<svg xmlns="http://www.w3.org/2000/svg" width="17.07" height="16" viewBox="0 0 17.07 16">
  <g id="레이어_2" data-name="레이어 2">
    <g id="레이어_1-2" data-name="레이어 1">
      <g>
        <path d="M3.48,16H.31A.31.31,0,0,1,0,15.69v-10a.31.31,0,0,1,.31-.32H3.48a.32.32,0,0,1,.32.32v10A.31.31,0,0,1,3.48,16ZM.63,15.37H3.17V6H.63Z" fill="#bebebe"/>
        <path d="M12.8,16H5.67a1.25,1.25,0,0,1-1.25-1.25V5.4a.33.33,0,0,1,.1-.23l5.11-5a.63.63,0,0,1,.88,0l.63.61a1.49,1.49,0,0,1,.42,1.39.06.06,0,0,1,0,0l-.92,2.86h4.48a2,2,0,0,1,2,2V8.69A1.09,1.09,0,0,1,17,9l-2.43,5.79A1.91,1.91,0,0,1,12.8,16ZM5.05,5.53v9.22a.62.62,0,0,0,.62.62H12.8A1.29,1.29,0,0,0,14,14.58l2.43-5.79a.36.36,0,0,0,0-.1V7a1.34,1.34,0,0,0-1.33-1.33H10.2a.33.33,0,0,1-.26-.13.31.31,0,0,1,0-.28L11,2a.88.88,0,0,0-.25-.8L10.07.63Z" fill="#bebebe"/>
      </g>
    </g>
  </g>
</svg>
