<svg xmlns="http://www.w3.org/2000/svg" width="17.07" height="16" viewBox="0 0 17.07 16">
  <g id="레이어_2" data-name="레이어 2">
    <g id="레이어_1-2" data-name="레이어 1">
      <g>
        <rect y="5.36" width="3.8" height="10.64" rx="0.31" fill="#bebebe"/>
        <path d="M15.1,5.08H10.63l.92-2.86a.06.06,0,0,0,0,0A1.49,1.49,0,0,0,11.14.79L10.51.18a.63.63,0,0,0-.88,0l-5.11,5a.33.33,0,0,0-.1.23v9.35A1.25,1.25,0,0,0,5.67,16H12.8a1.91,1.91,0,0,0,1.77-1.17L17,9a1.09,1.09,0,0,0,.07-.35V7A2,2,0,0,0,15.1,5.08Z" fill="#bebebe"/>
      </g>
    </g>
  </g>
</svg>
