<svg xmlns="http://www.w3.org/2000/svg" width="68.75" height="50" viewBox="0 0 68.75 50">
  <g id="레이어_2" data-name="레이어 2">
    <g id="레이어_1-2" data-name="레이어 1">
      <g>
        <polygon points="3.6 42.64 3.94 41.31 4.29 39.98 4.63 38.66 4.98 37.33 5.33 36 5.67 34.68 6.02 33.35 6.36 32.02 6.71 30.7 7.05 29.37 7.4 28.04 7.75 26.71 8.09 25.39 8.44 24.06 8.78 22.73 9.13 21.41 9.48 20.08 9.82 18.75 10.17 17.43 10.51 16.1 10.86 14.77 11.21 13.45 11.55 12.12 11.9 10.79 12.24 9.47 12.59 8.14 12.94 6.81 13.28 5.49 13.29 5.47 13.28 5.46 12.94 4.13 12.59 2.8 12.45 2.26 12.24 3.04 11.9 4.37 11.55 5.7 11.21 7.02 10.86 8.35 10.51 9.68 10.17 11 9.82 12.33 9.48 13.66 9.13 14.98 8.78 16.31 8.44 17.64 8.09 18.96 7.75 20.29 7.4 21.62 7.05 22.95 6.71 24.27 6.36 25.6 6.02 26.93 5.67 28.25 5.33 29.58 4.98 30.91 4.63 32.23 4.29 33.56 3.94 34.89 3.6 36.21 3.25 37.54 2.9 38.87 2.56 40.19 2.21 41.52 1.86 42.85 1.52 44.17 1.17 45.5 0 50 1.17 50 1.52 50 1.68 50 1.86 49.27 2.21 47.94 2.56 46.62 2.9 45.29 3.25 43.96 3.6 42.64" fill="#bebebe"/>
        <polygon points="6.36 43.28 6.71 41.96 7.05 40.63 7.4 39.3 7.75 37.98 8.09 36.65 8.44 35.32 8.78 33.99 9.13 32.67 9.48 31.34 9.82 30.01 10.17 28.69 10.51 27.36 10.86 26.03 11.21 24.71 11.55 23.38 11.9 22.05 12.24 20.73 12.59 19.4 12.94 18.07 13.28 16.75 13.63 15.42 13.97 14.09 14.32 12.77 14.67 11.44 14.75 11.1 14.67 10.77 14.32 9.44 13.97 8.11 13.92 7.89 13.63 8.99 13.28 10.32 12.94 11.65 12.59 12.97 12.24 14.3 11.9 15.63 11.55 16.96 11.21 18.28 10.86 19.61 10.51 20.94 10.17 22.26 9.82 23.59 9.48 24.92 9.13 26.24 8.78 27.57 8.44 28.9 8.09 30.22 7.75 31.55 7.4 32.88 7.05 34.2 6.71 35.53 6.36 36.86 6.02 38.19 5.67 39.51 5.33 40.84 4.98 42.16 4.63 43.49 4.29 44.82 3.94 46.15 3.6 47.47 3.25 48.8 2.94 50 3.25 50 3.6 50 3.94 50 4.29 50 4.61 50 4.63 49.92 4.98 48.59 5.33 47.26 5.67 45.94 6.02 44.61 6.36 43.28" fill="#bebebe"/>
        <polygon points="9.48 42.6 9.82 41.27 10.17 39.95 10.51 38.62 10.86 37.29 11.21 35.97 11.55 34.64 11.9 33.31 12.24 31.99 12.59 30.66 12.94 29.33 13.28 28.01 13.63 26.68 13.97 25.35 14.32 24.03 14.67 22.7 15.01 21.37 15.36 20.05 15.7 18.72 16.05 17.39 16.22 16.73 16.05 16.07 15.7 14.75 15.38 13.52 15.36 13.62 15.01 14.95 14.67 16.27 14.32 17.6 13.97 18.93 13.63 20.25 13.28 21.58 12.94 22.91 12.59 24.24 12.24 25.56 11.9 26.89 11.55 28.22 11.21 29.54 10.86 30.87 10.51 32.2 10.17 33.52 9.82 34.85 9.48 36.18 9.13 37.5 8.78 38.83 8.44 40.16 8.09 41.48 7.75 42.81 7.4 44.14 7.05 45.47 6.71 46.79 6.36 48.12 6.02 49.45 5.87 50 6.02 50 6.36 50 6.71 50 7.05 50 7.4 50 7.55 50 7.75 49.23 8.09 47.91 8.44 46.58 8.78 45.26 9.13 43.93 9.48 42.6" fill="#bebebe"/>
        <polygon points="12.24 43.25 12.59 41.92 12.94 40.59 13.28 39.27 13.63 37.94 13.97 36.61 14.32 35.29 14.67 33.96 15.01 32.63 15.36 31.3 15.7 29.98 16.05 28.65 16.4 27.32 16.74 26 17.09 24.67 17.43 23.34 17.69 22.36 17.43 21.38 17.09 20.05 16.85 19.15 16.74 19.57 16.4 20.9 16.05 22.23 15.7 23.55 15.36 24.88 15.01 26.21 14.67 27.53 14.32 28.86 13.97 30.19 13.63 31.52 13.28 32.84 12.94 34.17 12.59 35.49 12.24 36.82 11.9 38.15 11.55 39.48 11.21 40.8 10.86 42.13 10.51 43.46 10.17 44.78 9.82 46.11 9.48 47.44 9.13 48.76 8.81 50 9.13 50 9.48 50 9.82 50 10.17 50 10.48 50 10.51 49.88 10.86 48.55 11.21 47.23 11.55 45.9 11.9 44.57 12.24 43.25" fill="#bebebe"/>
        <polygon points="15.36 42.56 15.7 41.24 16.05 39.91 16.4 38.58 16.74 37.26 17.09 35.93 17.43 34.6 17.78 33.27 18.13 31.95 18.47 30.62 18.82 29.29 19.16 27.99 18.82 26.69 18.47 25.36 18.32 24.78 18.13 25.53 17.78 26.85 17.43 28.18 17.09 29.51 16.74 30.83 16.4 32.16 16.05 33.49 15.7 34.81 15.36 36.14 15.01 37.47 14.67 38.79 14.32 40.12 13.97 41.45 13.63 42.77 13.28 44.1 12.94 45.43 12.59 46.76 12.24 48.08 11.9 49.41 11.74 50 11.9 50 12.24 50 12.49 50 12.59 50 12.59 50 12.94 50 12.94 50 13.28 50 13.28 50 13.42 50 13.63 49.2 13.97 47.87 14.32 46.55 14.67 45.22 15.01 43.89 15.36 42.56" fill="#bebebe"/>
        <polygon points="20.2 32 19.86 30.67 19.79 30.41 19.51 31.48 19.16 32.8 18.82 34.13 18.47 35.46 18.13 36.78 17.78 38.11 17.43 39.44 17.09 40.77 16.74 42.09 16.4 43.42 16.05 44.75 15.7 46.07 15.36 47.4 15.01 48.73 14.68 50 15.01 50 15.01 50 15.36 50 15.36 50 15.7 50 15.7 50 16.05 50 16.05 50 16.35 50 16.4 49.84 16.74 48.51 17.09 47.18 17.43 45.86 17.78 44.53 18.13 43.2 18.47 41.88 18.82 40.55 19.16 39.22 19.51 37.9 19.86 36.57 20.2 35.24 20.55 33.91 20.62 33.62 20.55 33.33 20.2 32" fill="#bebebe"/>
        <polygon points="16.4 1.31 16.74 2.64 16.74 2.64 16.85 3.06 17.09 3.96 17.09 3.96 17.43 5.29 17.43 5.29 17.48 5.48 17.78 6.62 17.78 6.62 18.13 7.95 18.13 7.95 18.32 8.69 18.47 9.27 18.47 9.27 18.82 10.6 18.82 10.6 18.95 11.11 19.16 11.93 19.16 11.93 19.51 13.25 19.51 13.25 19.79 14.32 19.86 14.58 19.86 14.58 20.2 15.91 20.2 15.91 20.42 16.74 20.55 17.23 20.55 17.23 20.89 18.56 20.89 18.56 21.24 19.89 21.24 19.89 21.25 19.95 21.59 21.21 21.59 21.21 21.89 22.36 21.93 22.54 21.93 22.54 22.28 23.87 22.28 23.87 22.62 25.19 22.62 25.19 22.72 25.57 22.97 26.52 22.97 26.52 23.04 26.79 23.32 27.85 23.35 27.99 23.66 29.17 24.01 30.5 24.35 31.83 24.7 33.15 25.05 34.48 25.39 35.81 25.74 37.13 26.08 38.46 26.43 39.79 26.77 41.12 27.03 42.11 27.12 41.78 27.47 40.45 27.81 39.13 27.87 38.9 27.81 38.67 27.47 37.34 27.12 36.02 26.77 34.69 26.43 33.36 26.08 32.04 25.74 30.71 25.39 29.38 25.05 28.06 24.7 26.73 24.35 25.4 24.19 24.78 24.01 24.08 23.88 23.57 23.66 22.75 23.66 22.75 23.56 22.36 23.32 21.42 23.32 21.42 22.97 20.1 22.97 20.1 22.72 19.15 22.62 18.77 22.62 18.77 22.28 17.44 22.28 17.44 22.09 16.73 21.93 16.11 21.93 16.11 21.59 14.79 21.59 14.79 21.25 13.52 21.24 13.46 21.24 13.46 20.89 12.13 20.89 12.13 20.63 11.11 20.55 10.81 20.55 10.81 20.2 9.48 20.2 9.48 19.86 8.15 19.86 8.15 19.79 7.89 19.51 6.83 19.51 6.83 19.16 5.5 19.16 5.5 19.16 5.48 18.82 4.17 18.82 4.17 18.47 2.85 18.47 2.85 18.32 2.26 18.13 1.52 18.13 1.52 17.78 0.19 17.78 0.19 17.73 0 17.65 0 17.43 0 17.43 0 17.09 0 17.09 0 16.74 0 16.74 0 16.4 0 16.4 0 16.05 0 16.4 1.31 16.4 1.31" fill="#bebebe"/>
        <polygon points="19.16 0.67 19.51 1.99 19.51 1.99 19.79 3.06 19.86 3.32 19.86 3.32 20.2 4.65 20.2 4.65 20.42 5.48 20.55 5.97 20.55 5.97 20.89 7.3 20.89 7.3 21.24 8.63 21.24 8.63 21.25 8.69 21.59 9.95 21.59 9.95 21.89 11.11 21.93 11.28 21.93 11.28 22.28 12.61 22.28 12.61 22.62 13.93 22.62 13.93 22.72 14.31 22.97 15.26 22.97 15.26 23.32 16.59 23.32 16.59 23.35 16.73 23.66 17.91 23.66 17.91 24.01 19.24 24.01 19.24 24.19 19.94 24.35 20.57 24.35 20.57 24.51 21.15 24.7 21.89 24.82 22.36 25.05 23.22 25.39 24.55 25.74 25.88 26.08 27.2 26.43 28.53 26.77 29.86 27.12 31.18 27.47 32.51 27.81 33.84 28.16 35.16 28.5 36.48 28.5 36.47 28.85 35.15 29.2 33.82 29.34 33.27 29.2 32.72 28.85 31.39 28.5 30.07 28.16 28.74 27.81 27.41 27.47 26.08 27.12 24.76 26.77 23.43 26.43 22.1 26.08 20.78 25.74 19.45 25.66 19.15 25.39 18.12 25.34 17.94 25.05 16.8 25.05 16.8 25.03 16.73 24.7 15.47 24.7 15.47 24.35 14.14 24.35 14.14 24.19 13.52 24.01 12.82 24.01 12.82 23.66 11.49 23.66 11.49 23.56 11.1 23.32 10.16 23.32 10.16 22.97 8.84 22.97 8.84 22.72 7.89 22.62 7.51 22.62 7.51 22.28 6.18 22.28 6.18 22.09 5.48 21.93 4.86 21.93 4.86 21.59 3.53 21.59 3.53 21.25 2.26 21.24 2.2 21.24 2.2 20.89 0.88 20.89 0.88 20.66 0 20.58 0 20.55 0 20.55 0 20.2 0 20.2 0 19.86 0 19.86 0 19.51 0 19.51 0 19.16 0 19.16 0 18.99 0 19.16 0.67 19.16 0.67" fill="#bebebe"/>
        <polygon points="21.93 0.02 22.28 1.35 22.28 1.35 22.62 2.67 22.62 2.67 22.72 3.06 22.97 4 22.97 4 23.32 5.33 23.32 5.33 23.35 5.48 23.66 6.65 23.66 6.65 24.01 7.98 24.01 7.98 24.19 8.68 24.35 9.31 24.35 9.31 24.7 10.63 24.7 10.63 24.82 11.1 25.05 11.96 25.05 11.96 25.39 13.29 25.39 13.29 25.66 14.31 25.74 14.62 25.74 14.62 25.97 15.52 26.08 15.94 26.29 16.73 26.43 17.27 26.77 18.59 27.12 19.92 27.47 21.25 27.81 22.58 28.16 23.9 28.5 25.23 28.85 26.56 29.2 27.88 29.54 29.21 29.89 30.54 29.97 30.85 30.23 29.84 30.58 28.51 30.81 27.64 30.58 26.77 30.23 25.44 29.89 24.11 29.54 22.79 29.2 21.46 28.85 20.13 28.5 18.8 28.16 17.48 27.81 16.15 27.47 14.82 27.13 13.52 27.12 13.5 26.81 12.31 26.77 12.17 26.77 12.17 26.5 11.1 26.43 10.84 26.43 10.84 26.08 9.52 26.08 9.52 25.74 8.19 25.74 8.19 25.66 7.89 25.39 6.86 25.39 6.86 25.05 5.54 25.05 5.54 25.03 5.47 24.7 4.21 24.7 4.21 24.35 2.88 24.35 2.88 24.19 2.26 24.01 1.56 24.01 1.56 23.66 0.23 23.66 0.23 23.6 0 23.52 0 23.32 0 23.32 0 22.97 0 22.97 0 22.62 0 22.62 0 22.28 0 22.28 0 21.93 0 21.93 0 21.93 0 21.93 0.02 21.93 0.02" fill="#bebebe"/>
        <polygon points="25.05 0.7 25.39 2.03 25.39 2.03 25.66 3.05 25.74 3.35 25.74 3.35 26.08 4.68 26.08 4.68 26.29 5.47 26.43 6.01 26.43 6.01 26.77 7.33 26.77 7.33 27.12 8.66 27.12 8.66 27.13 8.68 27.44 9.89 27.47 9.99 27.76 11.1 27.81 11.32 28.16 12.64 28.5 13.97 28.85 15.3 29.2 16.62 29.54 17.95 29.89 19.28 30.23 20.6 30.58 21.93 30.93 23.26 31.27 24.58 31.44 25.22 31.62 24.53 31.96 23.2 32.27 22.01 31.96 20.81 31.62 19.49 31.27 18.16 30.93 16.83 30.58 15.51 30.23 14.18 29.89 12.85 29.54 11.53 29.2 10.2 28.85 8.87 28.59 7.89 28.5 7.54 28.28 6.68 28.16 6.22 28.16 6.22 27.96 5.47 27.81 4.89 27.81 4.89 27.47 3.56 27.47 3.56 27.13 2.26 27.12 2.24 27.12 2.24 26.77 0.91 26.77 0.91 26.54 0 26.45 0 26.43 0 26.43 0 26.43 0 26.08 0 26.08 0 26.08 0 25.74 0 25.74 0 25.74 0 25.61 0 25.39 0 25.39 0 25.05 0 25.05 0 24.86 0 25.05 0.7 25.05 0.7" fill="#bebebe"/>
        <polygon points="26.08 43.3 25.74 41.97 25.39 40.64 25.05 39.32 24.7 37.99 24.35 36.66 24.01 35.34 23.66 34.01 23.32 32.68 22.97 31.36 22.72 30.41 22.62 30.03 22.41 29.2 22.28 28.7 22.28 28.7 22.09 27.99 21.93 27.38 21.93 27.38 21.59 26.05 21.59 26.05 21.25 24.78 21.24 24.72 21.24 24.72 20.89 23.39 20.89 23.39 20.62 22.36 20.55 22.07 20.55 22.07 20.2 20.74 20.2 20.74 19.86 19.41 19.86 19.41 19.79 19.15 19.51 18.09 19.51 18.09 19.16 16.76 19.16 16.76 19.16 16.74 18.82 15.43 18.82 15.43 18.47 14.11 18.47 14.11 18.32 13.52 18.13 12.78 18.13 12.78 17.78 11.45 17.78 11.45 17.69 11.11 17.43 10.13 17.43 10.13 17.09 8.8 17.09 8.8 16.85 7.89 16.74 7.47 16.74 7.47 16.4 6.15 16.4 6.15 16.22 5.48 16.05 4.82 16.05 4.82 15.7 3.49 15.7 3.49 15.38 2.26 15.36 2.17 15.36 2.17 15.01 0.84 15.01 0.84 14.79 0 14.71 0 14.67 0 14.67 0 14.32 0 14.32 0 13.97 0 13.97 0 13.63 0 13.63 0 13.28 0 13.28 0 13.12 0 13.28 0.62 13.28 0.62 13.63 1.95 13.63 1.95 13.92 3.05 13.97 3.27 13.97 3.28 14.32 4.6 14.32 4.6 14.55 5.47 14.67 5.93 14.67 5.93 15.01 7.26 15.01 7.26 15.36 8.58 15.36 8.58 15.38 8.68 15.7 9.91 15.7 9.91 16.01 11.1 16.05 11.24 16.05 11.24 16.4 12.56 16.4 12.56 16.74 13.89 16.74 13.89 16.85 14.31 17.09 15.22 17.09 15.22 17.43 16.55 17.43 16.55 17.48 16.73 17.78 17.87 17.78 17.87 18.13 19.2 18.13 19.2 18.32 19.95 18.47 20.53 18.47 20.53 18.82 21.85 18.82 21.85 18.95 22.36 19.16 23.18 19.16 23.18 19.51 24.51 19.51 24.51 19.79 25.57 19.86 25.84 19.86 25.84 20.2 27.16 20.2 27.16 20.42 27.99 20.55 28.49 20.55 28.49 20.89 29.82 20.89 29.82 21.24 31.14 21.24 31.14 21.25 31.2 21.57 32.41 21.59 32.47 21.89 33.62 21.93 33.8 22.28 35.12 22.62 36.45 22.97 37.78 23.32 39.1 23.66 40.43 24.01 41.76 24.35 43.09 24.7 44.41 25.05 45.74 25.39 47.07 25.57 47.74 25.74 47.09 26.08 45.76 26.4 44.53 26.08 43.3" fill="#bebebe"/>
        <polygon points="27.81 0.06 28.16 1.38 28.16 1.38 28.5 2.71 28.5 2.71 28.59 3.05 28.85 4.04 28.85 4.04 28.91 4.26 29.2 5.36 29.22 5.47 29.54 6.69 29.89 8.02 30.23 9.34 30.58 10.67 30.93 12 31.27 13.32 31.62 14.65 31.96 15.98 32.31 17.3 32.66 18.63 32.91 19.59 33 19.22 33.35 17.9 33.69 16.57 33.74 16.38 33.69 16.19 33.35 14.86 33 13.53 32.66 12.21 32.31 10.88 31.96 9.55 31.62 8.23 31.27 6.9 30.93 5.57 30.58 4.25 30.23 2.92 30.06 2.26 29.89 1.59 29.75 1.05 29.54 0.27 29.54 0.27 29.47 0 29.39 0 29.2 0 29.2 0 29.2 0 28.85 0 28.85 0 28.85 0 28.5 0 28.5 0 28.5 0 28.16 0 28.16 0 28.16 0 27.81 0 27.81 0 27.81 0 27.8 0 27.81 0.06 27.81 0.06" fill="#bebebe"/>
        <polygon points="19.16 27.97 19.16 27.99 19.16 28.02 19.16 27.97" fill="#bebebe"/>
        <polygon points="29.2 45.08 29.34 44.53 29.54 43.75 29.54 43.75 29.89 42.42 29.89 42.42 29.97 42.11 30.23 41.1 30.23 41.1 30.58 39.77 30.58 39.77 30.81 38.9 30.93 38.45 30.93 38.44 31.27 37.12 31.27 37.12 31.44 36.48 31.62 35.79 31.62 35.79 31.96 34.46 31.96 34.46 32.27 33.27 32.31 33.14 32.31 33.14 32.66 31.81 32.66 31.81 32.91 30.85 33 30.48 33 30.48 33.35 29.16 33.35 29.16 33.69 27.83 33.69 27.83 33.74 27.64 34.04 26.5 34.04 26.5 34.37 25.22 34.38 25.18 34.39 25.18 34.73 23.85 34.73 23.85 35.08 22.52 35.08 22.52 35.21 22.01 35.42 21.2 35.42 21.2 35.53 20.8 35.77 19.87 35.84 19.59 36.12 18.54 36.46 17.21 36.81 15.89 37.15 14.56 37.5 13.23 37.84 11.91 38.19 10.58 38.54 9.26 38.88 7.93 39.23 6.6 39.52 5.47 39.23 4.35 38.88 3.02 38.69 2.26 38.54 2.83 38.19 4.16 37.84 5.48 37.5 6.81 37.15 8.14 36.81 9.46 36.46 10.79 36.12 12.12 35.77 13.45 35.42 14.77 35.08 16.1 35 16.38 34.73 17.43 34.69 17.59 34.39 18.75 34.38 18.75 34.37 18.8 34.04 20.08 34.04 20.08 33.69 21.41 33.69 21.41 33.54 22.01 33.35 22.73 33.35 22.73 33 24.06 33 24.06 32.91 24.43 32.66 25.39 32.66 25.39 32.31 26.71 32.31 26.71 32.07 27.64 31.96 28.04 31.96 28.04 31.62 29.37 31.62 29.37 31.44 30.06 31.27 30.69 31.27 30.69 30.93 32.02 30.93 32.02 30.6 33.27 30.58 33.35 30.58 33.35 30.23 34.67 30.23 34.67 29.97 35.69 29.89 36 29.89 36 29.54 37.33 29.54 37.33 29.2 38.65 29.2 38.66 29.13 38.9 28.85 39.98 28.85 39.98 28.5 41.31 28.5 41.31 28.5 41.32 28.16 42.63 28.16 42.63 27.81 43.96 27.81 43.96 27.66 44.53 27.47 45.29 27.47 45.29 27.12 46.62 27.12 46.62 27.03 46.95 26.77 47.94 26.77 47.94 26.43 49.27 26.43 49.27 26.24 50 26.43 50 26.43 50 26.43 50 26.77 50 26.77 50 26.77 50 27.12 50 27.12 50 27.12 50 27.47 50 27.47 50 27.47 50 27.81 50 27.81 50 27.81 50 27.83 50 27.91 50 28.16 49.06 28.16 49.06 28.5 47.74 28.5 47.73 28.5 47.73 28.85 46.41 28.85 46.41 29.2 45.08 29.2 45.08" fill="#bebebe"/>
        <polygon points="32.31 44.4 32.31 44.4 32.66 43.07 32.66 43.07 32.91 42.11 33 41.74 33 41.74 33.35 40.42 33.35 40.42 33.69 39.09 33.69 39.09 33.74 38.9 34.04 37.76 34.04 37.76 34.37 36.48 34.38 36.44 34.39 36.44 34.73 35.11 34.73 35.11 35.08 33.78 35.08 33.78 35.21 33.27 35.42 32.46 35.42 32.46 35.77 31.13 35.77 31.13 35.84 30.85 36.12 29.8 36.12 29.8 36.46 28.48 36.46 28.48 36.68 27.64 36.81 27.15 36.81 27.15 36.99 26.43 37.15 25.82 37.31 25.22 37.5 24.5 37.84 23.17 38.19 21.84 38.54 20.51 38.88 19.19 39.23 17.86 39.58 16.53 39.92 15.21 40.27 13.88 40.61 12.55 40.96 11.23 40.99 11.11 40.96 10.98 40.61 9.66 40.27 8.33 40.15 7.89 39.92 8.78 39.58 10.11 39.23 11.44 38.88 12.76 38.54 14.09 38.19 15.42 37.84 16.74 37.5 18.07 37.15 19.4 36.81 20.72 36.47 22.01 36.46 22.05 36.16 23.22 36.12 23.38 36.12 23.38 35.84 24.43 35.77 24.7 35.77 24.7 35.42 26.03 35.42 26.03 35.08 27.36 35.08 27.36 35 27.64 34.73 28.68 34.73 28.68 34.39 30.01 34.38 30.01 34.37 30.06 34.04 31.34 34.04 31.34 33.69 32.67 33.69 32.67 33.54 33.27 33.35 33.99 33.35 33.99 33 35.32 33 35.32 32.91 35.69 32.66 36.65 32.66 36.65 32.31 37.97 32.31 37.97 32.07 38.9 31.96 39.3 31.96 39.3 31.62 40.63 31.62 40.63 31.44 41.32 31.27 41.95 31.27 41.95 30.93 43.28 30.93 43.28 30.6 44.53 30.58 44.61 30.58 44.61 30.23 45.93 30.23 45.93 29.97 46.95 29.89 47.26 29.89 47.26 29.54 48.59 29.54 48.59 29.2 49.91 29.2 49.91 29.17 50 29.2 50 29.2 50 29.2 50 29.54 50 29.54 50 29.54 50 29.89 50 29.89 50 29.89 50 30.02 50 30.23 50 30.23 50 30.58 50 30.58 50 30.77 50 30.85 50 30.93 49.7 30.93 49.7 31.27 48.38 31.27 48.38 31.44 47.74 31.62 47.05 31.62 47.05 31.96 45.72 31.96 45.72 32.27 44.53 32.31 44.4" fill="#bebebe"/>
        <polygon points="35.08 45.04 35.21 44.53 35.42 43.72 35.42 43.72 35.77 42.39 35.77 42.39 35.84 42.11 36.12 41.06 36.12 41.06 36.46 39.73 36.46 39.73 36.68 38.9 36.81 38.41 36.81 38.41 37.15 37.08 37.15 37.08 37.31 36.48 37.5 35.76 37.5 35.76 37.84 34.43 37.84 34.43 38.15 33.27 38.19 33.1 38.19 33.1 38.46 32.06 38.54 31.77 38.78 30.85 38.88 30.45 39.23 29.12 39.58 27.79 39.92 26.47 40.27 25.14 40.61 23.81 40.96 22.49 41.3 21.16 41.65 19.83 42 18.51 42.34 17.18 42.46 16.73 42.34 16.29 42 14.96 41.65 13.64 41.62 13.52 41.3 14.74 40.96 16.06 40.61 17.39 40.27 18.72 39.92 20.04 39.58 21.37 39.23 22.7 38.88 24.02 38.54 25.35 38.19 26.68 37.94 27.64 37.84 28 37.63 28.85 37.5 29.33 37.5 29.33 37.31 30.06 37.15 30.66 37.15 30.66 36.81 31.98 36.81 31.98 36.47 33.27 36.46 33.31 36.46 33.31 36.12 34.64 36.12 34.64 35.84 35.69 35.77 35.97 35.77 35.97 35.42 37.29 35.42 37.29 35.08 38.62 35.08 38.62 35 38.9 34.73 39.95 34.73 39.95 34.39 41.27 34.38 41.27 34.37 41.32 34.04 42.6 34.04 42.6 33.69 43.92 33.69 43.93 33.54 44.53 33.35 45.25 33.35 45.25 33 46.58 33 46.58 32.91 46.95 32.66 47.91 32.66 47.91 32.31 49.23 32.31 49.23 32.11 50 32.31 50 32.31 50 32.66 50 32.66 50 33 50 33 50 33.35 50 33.35 50 33.69 50 33.69 50 33.7 50 33.78 50 34.04 49.02 34.04 49.02 34.37 47.74 34.38 47.7 34.39 47.7 34.73 46.37 34.73 46.37 35.08 45.04 35.08 45.04" fill="#bebebe"/>
        <polygon points="38.19 44.36 38.19 44.36 38.54 43.03 38.54 43.03 38.78 42.11 38.88 41.71 38.88 41.71 39.23 40.38 39.23 40.38 39.58 39.05 39.58 39.05 39.62 38.9 39.92 37.73 39.92 37.73 39.93 37.69 40.25 36.48 40.27 36.4 40.61 35.07 40.96 33.74 41.3 32.42 41.65 31.09 42 29.76 42.34 28.44 42.65 27.25 42.96 26.07 43.27 24.89 43.58 23.71 43.88 22.52 43.93 22.36 43.88 22.2 43.58 21.02 43.27 19.84 43.09 19.15 42.96 19.65 42.65 20.83 42.34 22.02 42 23.34 41.65 24.67 41.3 26 40.96 27.32 40.61 28.65 40.27 29.98 39.92 31.3 39.58 32.63 39.41 33.27 39.23 33.96 39.09 34.48 38.88 35.28 38.88 35.28 38.78 35.69 38.54 36.61 38.54 36.61 38.19 37.94 38.19 37.94 37.94 38.9 37.84 39.26 37.84 39.26 37.5 40.59 37.5 40.59 37.31 41.32 37.15 41.92 37.15 41.92 36.81 43.24 36.81 43.24 36.47 44.53 36.46 44.57 36.46 44.57 36.12 45.9 36.12 45.9 35.84 46.95 35.77 47.22 35.77 47.22 35.42 48.55 35.42 48.55 35.08 49.88 35.08 49.88 35.05 50 35.08 50 35.08 50 35.42 50 35.42 50 35.77 50 35.77 50 36.12 50 36.12 50 36.46 50 36.46 50 36.64 50 36.72 50 36.81 49.67 36.81 49.67 37.15 48.34 37.15 48.34 37.31 47.74 37.5 47.01 37.5 47.01 37.84 45.69 37.84 45.69 38.15 44.53 38.19 44.36" fill="#bebebe"/>
        <polygon points="40.96 45 41.08 44.52 41.3 43.67 41.3 43.67 41.4 43.31 41.65 42.34 41.71 42.11 42 41.02 42.34 39.69 42.65 38.51 42.96 37.33 43.27 36.14 43.58 34.96 43.88 33.78 44.19 32.6 44.5 31.41 44.81 30.23 45.12 29.05 45.39 27.99 45.12 26.93 44.81 25.75 44.56 24.78 44.5 25 44.19 26.18 43.88 27.36 43.58 28.54 43.27 29.73 42.96 30.91 42.65 32.09 42.34 33.27 42 34.6 41.65 35.93 41.3 37.25 40.96 38.58 40.88 38.9 40.61 39.91 40.56 40.11 40.27 41.23 40.27 41.23 40.25 41.32 39.92 42.56 39.92 42.56 39.58 43.89 39.58 43.89 39.41 44.53 39.23 45.22 39.23 45.22 38.88 46.54 38.88 46.54 38.78 46.95 38.54 47.87 38.54 47.87 38.19 49.2 38.19 49.2 37.98 50 38.19 50 38.19 50 38.54 50 38.54 50 38.73 50 38.88 50 38.88 50 39.23 50 39.23 50 39.57 50 39.58 50 39.58 50 39.66 50 39.92 48.98 39.92 48.98 40.24 47.74 40.27 47.65 40.27 47.65 40.61 46.33 40.61 46.33 40.96 45 40.96 45" fill="#bebebe"/>
        <polygon points="46.35 31.66 46.04 30.48 46.02 30.41 45.73 31.52 45.42 32.7 45.12 33.89 44.81 35.07 44.5 36.25 44.19 37.43 43.88 38.62 43.58 39.8 43.27 40.98 42.96 42.16 42.65 43.34 42.34 44.52 42.34 44.52 42.34 44.53 42.03 45.73 42 45.85 42 45.85 41.71 46.94 41.65 47.18 41.65 47.18 41.3 48.51 41.3 48.51 40.96 49.83 40.96 49.83 40.91 50 40.96 50 40.96 50 41.3 50 41.3 50 41.65 50 41.65 50 42 50 42.34 50 42.34 50 42.51 50 42.59 50 42.65 49.77 42.65 49.77 42.87 48.95 42.96 48.59 43.18 47.74 43.27 47.4 43.58 46.22 43.88 45.04 44.19 43.86 44.5 42.67 44.81 41.49 45.12 40.31 45.42 39.13 45.73 37.95 46.04 36.76 46.35 35.58 46.66 34.4 46.86 33.62 46.66 32.84 46.35 31.66" fill="#bebebe"/>
        <polygon points="53.75 48.78 53.44 47.59 53.13 46.41 52.82 45.23 52.52 44.05 52.21 42.87 51.9 41.68 51.59 40.5 51.28 39.32 50.97 38.13 50.67 36.95 50.36 35.77 50.05 34.59 49.74 33.41 49.43 32.22 49.13 31.04 48.96 30.41 48.82 29.86 48.64 29.2 48.51 28.68 48.33 27.99 48.2 27.5 47.89 26.31 47.58 25.13 47.49 24.78 47.27 23.95 46.97 22.77 46.86 22.36 46.66 21.58 46.35 20.4 46.04 19.22 46.02 19.15 45.73 18.04 45.42 16.85 45.39 16.73 45.12 15.67 44.81 14.49 44.56 13.52 44.5 13.31 44.19 12.13 43.93 11.11 43.88 10.94 43.58 9.76 43.27 8.58 43.09 7.89 42.96 7.4 42.65 6.21 42.46 5.48 42.34 5.03 42 3.71 41.65 2.38 41.62 2.26 41.3 1.05 41.03 0 40.96 0 40.96 0 40.95 0 40.61 0 40.27 0 40.27 0 39.92 0 39.92 0 39.58 0 39.58 0 39.36 0 39.58 0.84 39.92 2.17 40.15 3.06 40.27 3.5 40.61 4.82 40.78 5.47 40.96 6.15 41.3 7.47 41.62 8.69 41.65 8.8 42 10.13 42.25 11.11 42.34 11.46 42.65 12.64 42.96 13.82 43.09 14.32 43.27 15 43.58 16.18 43.72 16.73 43.88 17.37 44.19 18.55 44.5 19.73 44.56 19.95 44.81 20.91 45.12 22.1 45.19 22.36 45.42 23.28 45.73 24.46 46.02 25.57 46.04 25.64 46.35 26.83 46.65 27.99 46.66 28.01 46.97 29.19 47.27 30.37 47.49 31.2 47.58 31.55 47.81 32.41 47.89 32.74 48.12 33.62 48.2 33.92 48.51 35.1 48.82 36.28 49.13 37.47 49.43 38.65 49.74 39.83 50.05 41.01 50.36 42.2 50.67 43.38 50.97 44.56 51.28 45.74 51.59 46.92 51.9 48.11 52.21 49.29 52.39 50 52.52 50 52.82 50 53.13 50 53.44 50 53.75 50 54.06 50 54.07 50 54.06 49.96 53.75 48.78" fill="#bebebe"/>
        <polygon points="56.52 48.16 56.22 46.97 55.91 45.79 55.6 44.61 55.29 43.43 54.98 42.24 54.67 41.06 54.37 39.88 54.06 38.7 53.75 37.52 53.44 36.33 53.13 35.15 52.82 33.97 52.52 32.79 52.21 31.6 51.9 30.42 51.59 29.24 51.28 28.06 50.97 26.88 50.67 25.69 50.43 24.78 50.36 24.51 50.11 23.57 50.05 23.33 49.8 22.36 49.74 22.15 49.43 20.96 49.13 19.78 48.96 19.15 48.82 18.6 48.51 17.42 48.33 16.73 48.2 16.23 47.89 15.05 47.58 13.87 47.49 13.52 47.27 12.69 46.97 11.51 46.86 11.1 46.66 10.32 46.35 9.14 46.04 7.96 46.02 7.89 45.73 6.78 45.42 5.59 45.39 5.47 45.12 4.41 44.81 3.23 44.56 2.26 44.5 2.05 44.19 0.86 43.97 0 43.89 0 43.88 0 43.58 0 43.27 0 43.14 0 42.96 0 42.96 0 42.65 0 42.65 0 42.34 0 42.34 0 42.29 0 42.34 0.2 42.65 1.38 42.96 2.56 43.09 3.06 43.27 3.74 43.58 4.92 43.72 5.48 43.88 6.11 44.19 7.29 44.5 8.47 44.56 8.69 44.81 9.65 45.12 10.84 45.19 11.11 45.42 12.02 45.73 13.2 46.02 14.31 46.04 14.38 46.35 15.57 46.65 16.73 46.66 16.75 46.97 17.93 47.27 19.11 47.49 19.94 47.58 20.3 47.89 21.48 48.12 22.36 48.2 22.66 48.51 23.84 48.82 25.02 48.96 25.57 49.13 26.21 49.27 26.78 49.43 27.39 49.59 27.99 49.74 28.57 50.05 29.75 50.36 30.93 50.67 32.12 50.97 33.3 51.28 34.48 51.59 35.66 51.9 36.85 52.21 38.03 52.52 39.21 52.82 40.39 53.13 41.58 53.44 42.76 53.75 43.94 54.06 45.12 54.37 46.3 54.67 47.49 54.98 48.67 55.29 49.85 55.33 50 55.6 50 55.91 50 56.22 50 56.26 50 56.52 50 56.83 50 57 50 56.83 49.34 56.52 48.16" fill="#bebebe"/>
        <polygon points="59.61 48.72 59.3 47.54 58.99 46.35 58.68 45.17 58.37 43.99 58.06 42.81 57.76 41.63 57.45 40.44 57.14 39.26 56.83 38.08 56.52 36.9 56.22 35.71 55.91 34.53 55.6 33.35 55.29 32.17 54.98 30.98 54.67 29.8 54.37 28.62 54.06 27.44 53.75 26.25 53.44 25.07 53.13 23.89 52.82 22.71 52.52 21.53 52.21 20.34 51.9 19.16 51.9 19.14 51.9 19.15 51.59 17.98 51.58 17.94 51.28 16.8 51.27 16.73 50.97 15.62 50.67 14.43 50.43 13.52 50.36 13.25 50.05 12.07 49.8 11.1 49.74 10.89 49.43 9.7 49.13 8.52 48.96 7.89 48.82 7.34 48.51 6.16 48.33 5.47 48.2 4.97 47.89 3.79 47.58 2.61 47.49 2.26 47.27 1.43 46.97 0.25 46.9 0 46.82 0 46.66 0 46.35 0 46.04 0 45.73 0 45.42 0 45.23 0 45.42 0.76 45.73 1.94 46.02 3.06 46.04 3.12 46.35 4.31 46.66 5.47 46.66 5.49 46.97 6.67 47.27 7.85 47.49 8.68 47.58 9.04 47.89 10.22 48.12 11.1 48.2 11.4 48.51 12.58 48.82 13.76 48.96 14.31 49.13 14.95 49.43 16.13 49.59 16.73 49.74 17.31 50.05 18.49 50.36 19.68 50.43 19.94 50.67 20.86 50.74 21.15 50.97 22.04 51.06 22.36 51.28 23.22 51.59 24.4 51.9 25.59 52.21 26.77 52.52 27.95 52.82 29.13 53.13 30.32 53.44 31.5 53.75 32.68 54.06 33.86 54.37 35.04 54.67 36.23 54.98 37.41 55.29 38.59 55.6 39.77 55.91 40.96 56.22 42.14 56.52 43.32 56.83 44.5 57.14 45.69 57.45 46.87 57.76 48.05 58.06 49.23 58.27 50 58.37 50 58.68 50 58.99 50 59.3 50 59.61 50 59.91 50 59.94 50 59.91 49.9 59.61 48.72" fill="#bebebe"/>
        <polygon points="60.53 29.75 60.22 28.56 59.91 27.38 59.61 26.2 59.3 25.02 58.99 23.84 58.68 22.65 58.37 21.47 58.06 20.29 57.76 19.11 57.45 17.92 57.14 16.74 56.83 15.56 56.52 14.38 56.22 13.19 55.91 12.01 55.6 10.83 55.29 9.65 54.98 8.46 54.83 7.89 54.67 7.28 54.52 6.68 54.37 6.1 54.2 5.47 54.06 4.92 53.75 3.74 53.44 2.55 53.36 2.26 53.13 1.37 52.82 0.19 52.77 0 52.69 0 52.52 0 52.21 0 51.9 0 51.59 0 51.28 0 51.1 0 51.28 0.7 51.59 1.88 51.9 3.05 51.9 3.07 52.21 4.25 52.52 5.43 52.53 5.47 52.82 6.61 53.13 7.8 53.36 8.68 53.44 8.98 53.68 9.89 53.75 10.16 53.99 11.1 54.06 11.34 54.37 12.53 54.67 13.71 54.98 14.89 55.29 16.07 55.6 17.25 55.91 18.44 56.22 19.62 56.52 20.8 56.83 21.98 57.14 23.17 57.45 24.35 57.76 25.53 58.06 26.71 58.37 27.89 58.68 29.08 58.99 30.26 59.3 31.44 59.61 32.62 59.91 33.81 60.22 34.99 60.53 36.17 60.84 37.35 64.14 50 65.81 50 60.84 30.93 60.53 29.75" fill="#bebebe"/>
        <polygon points="60.53 41.01 60.22 39.82 59.91 38.64 59.61 37.46 59.3 36.28 58.99 35.09 58.68 33.91 58.37 32.73 58.06 31.55 57.76 30.37 57.45 29.18 57.14 28 56.83 26.82 56.52 25.64 56.22 24.45 55.91 23.27 55.6 22.09 55.29 20.91 54.98 19.73 54.67 18.54 54.37 17.36 54.06 16.18 53.75 15 53.44 13.81 53.36 13.52 53.13 12.63 53.05 12.31 52.82 11.45 52.73 11.1 52.52 10.27 52.21 9.09 51.9 7.9 51.9 7.88 51.9 7.89 51.59 6.72 51.28 5.54 51.27 5.47 50.97 4.36 50.67 3.17 50.43 2.26 50.36 1.99 50.05 0.81 49.84 0 49.76 0 49.74 0 49.43 0 49.13 0 48.82 0 48.51 0 48.2 0 48.16 0 48.2 0.14 48.51 1.32 48.82 2.5 48.96 3.05 49.13 3.69 49.43 4.87 49.59 5.47 49.74 6.05 50.05 7.23 50.36 8.41 50.43 8.68 50.67 9.6 50.97 10.78 51.06 11.1 51.28 11.96 51.59 13.14 51.9 14.31 51.9 14.33 52.21 15.51 52.21 15.52 52.52 16.69 52.53 16.73 52.82 17.87 53.13 19.05 53.44 20.24 53.75 21.42 54.06 22.6 54.37 23.78 54.67 24.97 54.98 26.15 55.29 27.33 55.6 28.51 55.91 29.7 56.22 30.88 56.52 32.06 56.83 33.24 57.14 34.42 57.45 35.61 57.76 36.79 58.06 37.97 58.37 39.15 58.68 40.34 58.99 41.52 59.3 42.7 59.61 43.88 59.91 45.06 60.22 46.25 60.53 47.43 60.84 48.61 61.2 50 62.88 50 60.84 42.19 60.53 41.01" fill="#bebebe"/>
        <polygon points="60.84 19.67 60.53 18.49 60.22 17.3 59.91 16.12 59.61 14.94 59.3 13.76 58.99 12.57 58.68 11.39 58.37 10.21 58.06 9.03 57.76 7.84 57.45 6.66 57.14 5.48 56.83 4.3 56.52 3.12 56.3 2.26 56.22 1.93 55.98 1.05 55.91 0.75 55.71 0 55.63 0 55.6 0 55.29 0 54.98 0 54.67 0 54.37 0 54.06 0 54.03 0 54.06 0.08 54.37 1.26 54.67 2.45 54.83 3.05 54.98 3.63 55.15 4.26 55.29 4.81 55.46 5.47 55.6 5.99 55.91 7.18 56.22 8.36 56.52 9.54 56.83 10.72 57.14 11.9 57.45 13.09 57.76 14.27 58.06 15.45 58.37 16.64 58.68 17.82 58.99 19 59.3 20.18 59.61 21.36 59.91 22.55 60.22 23.73 60.53 24.91 60.84 26.09 67.07 50 68.75 50 60.84 19.67" fill="#bebebe"/>
      </g>
    </g>
  </g>
</svg>
