<svg xmlns="http://www.w3.org/2000/svg" xmlns:xlink="http://www.w3.org/1999/xlink" width="80" height="58.18" viewBox="0 0 80 58.18">
  <defs>
    <linearGradient id="무제_그라디언트_2" data-name="무제 그라디언트 2" x1="-0.64" y1="30.41" x2="79.12" y2="30.41" gradientUnits="userSpaceOnUse">
      <stop offset="0" stop-color="#b721ff"/>
      <stop offset="0.69" stop-color="#5498fe"/>
      <stop offset="1" stop-color="#21d4fd"/>
    </linearGradient>
    <linearGradient id="무제_그라디언트_2-2" x1="-0.64" y1="33.68" x2="79.12" y2="33.68" xlink:href="#무제_그라디언트_2"/>
    <linearGradient id="무제_그라디언트_2-3" x1="-0.64" y1="36.96" x2="79.12" y2="36.96" xlink:href="#무제_그라디언트_2"/>
    <linearGradient id="무제_그라디언트_2-4" x1="-0.64" y1="40.23" x2="79.12" y2="40.23" xlink:href="#무제_그라디언트_2"/>
    <linearGradient id="무제_그라디언트_2-5" x1="-0.64" y1="43.51" x2="79.12" y2="43.51" xlink:href="#무제_그라디언트_2"/>
    <linearGradient id="무제_그라디언트_2-6" x1="-0.64" y1="46.79" x2="79.12" y2="46.79" xlink:href="#무제_그라디언트_2"/>
    <linearGradient id="무제_그라디언트_2-7" x1="-0.64" y1="24.5" x2="79.12" y2="24.5" xlink:href="#무제_그라디언트_2"/>
    <linearGradient id="무제_그라디언트_2-8" x1="-0.64" y1="21.23" x2="79.12" y2="21.23" xlink:href="#무제_그라디언트_2"/>
    <linearGradient id="무제_그라디언트_2-9" x1="-0.64" y1="17.95" x2="79.12" y2="17.95" xlink:href="#무제_그라디언트_2"/>
    <linearGradient id="무제_그라디언트_2-10" x1="-0.64" y1="14.67" x2="79.12" y2="14.67" xlink:href="#무제_그라디언트_2"/>
    <linearGradient id="무제_그라디언트_2-11" x1="-0.64" y1="27.78" x2="79.12" y2="27.78" xlink:href="#무제_그라디언트_2"/>
    <linearGradient id="무제_그라디언트_2-12" x1="-0.64" y1="11.4" x2="79.12" y2="11.4" xlink:href="#무제_그라디언트_2"/>
    <linearGradient id="무제_그라디언트_2-13" x1="-0.64" y1="32.57" x2="60.65" y2="32.57" xlink:href="#무제_그라디언트_2"/>
    <linearGradient id="무제_그라디언트_2-14" x1="-0.64" y1="30.41" x2="79.12" y2="30.41" xlink:href="#무제_그라디언트_2"/>
    <linearGradient id="무제_그라디언트_2-15" x1="-0.64" y1="33.68" x2="79.12" y2="33.68" xlink:href="#무제_그라디언트_2"/>
    <linearGradient id="무제_그라디언트_2-16" x1="-0.64" y1="36.96" x2="79.12" y2="36.96" xlink:href="#무제_그라디언트_2"/>
    <linearGradient id="무제_그라디언트_2-17" x1="-0.64" y1="40.24" x2="79.12" y2="40.24" xlink:href="#무제_그라디언트_2"/>
    <linearGradient id="무제_그라디언트_2-18" x1="-0.64" y1="43.51" x2="79.12" y2="43.51" xlink:href="#무제_그라디언트_2"/>
    <linearGradient id="무제_그라디언트_2-19" x1="-0.64" y1="46.78" x2="79.12" y2="46.78" xlink:href="#무제_그라디언트_2"/>
    <linearGradient id="무제_그라디언트_2-20" x1="-0.64" y1="51.82" x2="79.12" y2="51.82" xlink:href="#무제_그라디언트_2"/>
    <linearGradient id="무제_그라디언트_2-21" x1="-0.64" y1="29.09" x2="79.12" y2="29.09" xlink:href="#무제_그라디언트_2"/>
  </defs>
  <g id="레이어_2" data-name="레이어 2">
    <g id="레이어_1-2" data-name="레이어 1">
      <g>
        <polygon points="4.18 49.62 4.59 48.07 4.99 46.53 5.39 44.98 5.79 43.44 6.2 41.9 6.6 40.35 7 38.81 7.4 37.26 7.81 35.72 8.21 34.18 8.61 32.63 9.01 31.09 9.42 29.54 9.82 28 10.22 26.46 10.63 24.91 11.03 23.37 11.43 21.82 11.83 20.28 12.23 18.74 12.64 17.19 13.04 15.65 13.44 14.1 13.85 12.56 14.25 11.02 14.65 9.47 15.05 7.93 15.46 6.38 15.46 6.37 15.46 6.35 15.05 4.81 14.65 3.26 14.49 2.63 14.25 3.54 13.85 5.08 13.44 6.63 13.04 8.17 12.64 9.72 12.23 11.26 11.83 12.8 11.43 14.35 11.03 15.89 10.63 17.44 10.22 18.98 9.82 20.52 9.42 22.07 9.01 23.61 8.61 25.16 8.21 26.7 7.81 28.24 7.4 29.79 7 31.33 6.6 32.88 6.2 34.42 5.79 35.96 5.39 37.51 4.99 39.05 4.59 40.6 4.18 42.14 3.78 43.68 3.38 45.23 2.98 46.77 2.57 48.32 2.17 49.86 1.77 51.4 1.36 52.95 0 58.18 1.36 58.18 1.77 58.18 1.95 58.18 2.17 57.34 2.57 55.79 2.98 54.25 3.38 52.7 3.78 51.16 4.18 49.62" fill="url(#무제_그라디언트_2)"/>
        <polygon points="7.4 50.37 7.81 48.82 8.21 47.28 8.61 45.73 9.01 44.19 9.42 42.65 9.82 41.1 10.22 39.56 10.63 38.02 11.03 36.47 11.43 34.93 11.83 33.38 12.23 31.84 12.64 30.3 13.04 28.75 13.44 27.21 13.85 25.66 14.25 24.12 14.65 22.57 15.05 21.03 15.46 19.49 15.86 17.94 16.26 16.4 16.66 14.86 17.07 13.31 17.17 12.92 17.07 12.53 16.66 10.98 16.26 9.44 16.19 9.18 15.86 10.47 15.46 12.01 15.05 13.55 14.65 15.1 14.25 16.64 13.85 18.19 13.44 19.73 13.04 21.27 12.64 22.82 12.23 24.36 11.83 25.91 11.43 27.45 11.03 29 10.63 30.54 10.22 32.08 9.82 33.63 9.42 35.17 9.01 36.72 8.61 38.26 8.21 39.8 7.81 41.35 7.4 42.89 7 44.44 6.6 45.98 6.2 47.52 5.79 49.07 5.39 50.61 4.99 52.15 4.59 53.7 4.18 55.24 3.78 56.79 3.42 58.18 3.78 58.18 4.18 58.18 4.59 58.18 4.99 58.18 5.37 58.18 5.39 58.09 5.79 56.54 6.2 55 6.6 53.45 7 51.91 7.4 50.37" fill="url(#무제_그라디언트_2-2)"/>
        <polygon points="11.03 49.57 11.43 48.03 11.83 46.49 12.23 44.94 12.64 43.4 13.04 41.85 13.44 40.31 13.85 38.77 14.25 37.22 14.65 35.68 15.05 34.13 15.46 32.59 15.86 31.05 16.26 29.5 16.66 27.96 17.07 26.41 17.47 24.87 17.87 23.33 18.27 21.78 18.68 20.24 18.88 19.47 18.68 18.7 18.27 17.16 17.9 15.73 17.87 15.85 17.47 17.39 17.07 18.94 16.66 20.48 16.26 22.03 15.86 23.57 15.46 25.11 15.05 26.66 14.65 28.2 14.25 29.75 13.85 31.29 13.44 32.83 13.04 34.38 12.64 35.92 12.23 37.47 11.83 39.01 11.43 40.55 11.03 42.1 10.63 43.64 10.22 45.19 9.82 46.73 9.42 48.27 9.01 49.82 8.61 51.36 8.21 52.91 7.81 54.45 7.4 55.99 7 57.54 6.83 58.18 7 58.18 7.4 58.18 7.81 58.18 8.21 58.18 8.61 58.18 8.78 58.18 9.01 57.29 9.42 55.75 9.82 54.21 10.22 52.66 10.63 51.12 11.03 49.57" fill="url(#무제_그라디언트_2-3)"/>
        <polygon points="14.25 50.33 14.65 48.78 15.05 47.24 15.46 45.69 15.86 44.15 16.26 42.6 16.66 41.06 17.07 39.52 17.47 37.97 17.87 36.43 18.27 34.88 18.68 33.34 19.08 31.8 19.48 30.25 19.88 28.71 20.29 27.16 20.58 26.02 20.29 24.88 19.88 23.34 19.61 22.29 19.48 22.78 19.08 24.32 18.68 25.86 18.27 27.41 17.87 28.95 17.47 30.5 17.07 32.04 16.66 33.59 16.26 35.13 15.86 36.67 15.46 38.22 15.05 39.76 14.65 41.3 14.25 42.85 13.85 44.39 13.44 45.94 13.04 47.48 12.64 49.02 12.23 50.57 11.83 52.11 11.43 53.66 11.03 55.2 10.63 56.74 10.25 58.18 10.63 58.18 11.03 58.18 11.43 58.18 11.83 58.18 12.2 58.18 12.23 58.05 12.64 56.5 13.04 54.96 13.44 53.41 13.85 51.87 14.25 50.33" fill="url(#무제_그라디언트_2-4)"/>
        <polygon points="17.87 49.53 18.27 47.99 18.68 46.44 19.08 44.9 19.48 43.35 19.88 41.81 20.29 40.27 20.69 38.72 21.09 37.18 21.5 35.63 21.9 34.09 22.29 32.57 21.9 31.06 21.5 29.51 21.32 28.84 21.09 29.7 20.69 31.25 20.29 32.79 19.88 34.34 19.48 35.88 19.08 37.42 18.68 38.97 18.27 40.51 17.87 42.06 17.47 43.6 17.07 45.14 16.66 46.69 16.26 48.23 15.86 49.78 15.46 51.32 15.05 52.86 14.65 54.41 14.25 55.95 13.85 57.5 13.67 58.18 13.85 58.18 14.25 58.18 14.53 58.18 14.65 58.18 14.65 58.18 15.05 58.18 15.05 58.18 15.46 58.18 15.46 58.18 15.62 58.18 15.86 57.25 16.26 55.71 16.66 54.16 17.07 52.62 17.47 51.08 17.87 49.53" fill="url(#무제_그라디언트_2-5)"/>
        <polygon points="23.51 37.23 23.11 35.69 23.03 35.39 22.7 36.63 22.3 38.17 21.9 39.72 21.5 41.26 21.09 42.8 20.69 44.35 20.29 45.89 19.88 47.44 19.48 48.98 19.08 50.53 18.68 52.07 18.27 53.61 17.87 55.16 17.47 56.7 17.08 58.18 17.47 58.18 17.47 58.18 17.87 58.18 17.87 58.18 18.27 58.18 18.27 58.18 18.68 58.18 18.68 58.18 19.03 58.18 19.08 57.99 19.48 56.45 19.88 54.91 20.29 53.36 20.69 51.82 21.09 50.27 21.5 48.73 21.9 47.19 22.3 45.64 22.7 44.1 23.11 42.55 23.51 41.01 23.91 39.47 24 39.12 23.91 38.78 23.51 37.23" fill="url(#무제_그라디언트_2-6)"/>
        <polygon points="19.08 1.52 19.48 3.07 19.48 3.07 19.61 3.56 19.88 4.61 19.88 4.61 20.29 6.16 20.29 6.16 20.34 6.37 20.69 7.7 20.69 7.7 21.09 9.24 21.09 9.24 21.32 10.11 21.5 10.79 21.5 10.79 21.9 12.33 21.9 12.33 22.05 12.92 22.3 13.88 22.3 13.88 22.7 15.42 22.7 15.42 23.03 16.66 23.11 16.96 23.11 16.96 23.51 18.51 23.51 18.51 23.76 19.48 23.91 20.05 23.91 20.05 24.31 21.6 24.31 21.6 24.71 23.14 24.71 23.14 24.73 23.21 25.12 24.68 25.12 24.68 25.47 26.02 25.52 26.23 25.52 26.23 25.92 27.77 25.92 27.77 26.33 29.32 26.33 29.32 26.44 29.76 26.73 30.86 26.73 30.86 26.81 31.17 27.13 32.41 27.18 32.57 27.53 33.95 27.94 35.49 28.34 37.04 28.74 38.58 29.14 40.13 29.55 41.67 29.95 43.21 30.35 44.76 30.75 46.3 31.16 47.84 31.46 49 31.56 48.62 31.96 47.07 32.36 45.53 32.43 45.27 32.36 45 31.96 43.46 31.56 41.91 31.16 40.37 30.75 38.83 30.35 37.28 29.95 35.74 29.55 34.19 29.14 32.65 28.74 31.11 28.34 29.56 28.15 28.84 27.94 28.02 27.78 27.43 27.53 26.47 27.53 26.47 27.42 26.02 27.13 24.93 27.13 24.93 26.73 23.39 26.73 23.39 26.44 22.29 26.33 21.84 26.33 21.84 25.92 20.3 25.92 20.3 25.71 19.47 25.52 18.75 25.52 18.75 25.12 17.21 25.12 17.21 24.73 15.74 24.71 15.66 24.71 15.66 24.31 14.12 24.31 14.12 24 12.92 23.91 12.58 23.91 12.58 23.51 11.03 23.51 11.03 23.11 9.49 23.11 9.49 23.03 9.19 22.7 7.95 22.7 7.95 22.3 6.4 22.3 6.4 22.29 6.37 21.9 4.86 21.9 4.86 21.5 3.31 21.5 3.31 21.32 2.63 21.09 1.77 21.09 1.77 20.69 0.23 20.69 0.23 20.63 0 20.54 0 20.29 0 20.29 0 19.88 0 19.88 0 19.48 0 19.48 0 19.08 0 19.08 0 18.68 0 19.08 1.52 19.08 1.52" fill="url(#무제_그라디언트_2-7)"/>
        <polygon points="22.3 0.77 22.7 2.32 22.7 2.32 23.03 3.56 23.11 3.86 23.11 3.86 23.51 5.41 23.51 5.41 23.76 6.37 23.91 6.95 23.91 6.95 24.31 8.49 24.31 8.49 24.71 10.04 24.71 10.04 24.73 10.11 25.12 11.58 25.12 11.58 25.47 12.92 25.52 13.13 25.52 13.13 25.92 14.67 25.92 14.67 26.33 16.21 26.33 16.21 26.44 16.66 26.73 17.76 26.73 17.76 27.13 19.3 27.13 19.3 27.18 19.47 27.53 20.85 27.53 20.85 27.94 22.39 27.94 22.39 28.15 23.21 28.34 23.93 28.34 23.93 28.52 24.62 28.74 25.48 28.88 26.02 29.14 27.02 29.55 28.57 29.95 30.11 30.35 31.65 30.75 33.2 31.16 34.74 31.56 36.29 31.96 37.83 32.36 39.37 32.77 40.92 33.17 42.45 33.17 42.46 33.17 42.44 33.57 40.9 33.98 39.35 34.14 38.71 33.98 38.07 33.57 36.53 33.17 34.99 32.77 33.44 32.36 31.9 31.96 30.35 31.56 28.81 31.16 27.27 30.75 25.72 30.35 24.18 29.95 22.63 29.86 22.28 29.55 21.09 29.49 20.88 29.14 19.55 29.14 19.55 29.12 19.47 28.74 18 28.74 18 28.34 16.46 28.34 16.46 28.15 15.73 27.94 14.91 27.94 14.91 27.53 13.37 27.53 13.37 27.42 12.92 27.13 11.83 27.13 11.83 26.73 10.28 26.73 10.28 26.44 9.19 26.33 8.74 26.33 8.74 25.92 7.19 25.92 7.19 25.71 6.37 25.52 5.65 25.52 5.65 25.12 4.11 25.12 4.11 24.73 2.63 24.71 2.56 24.71 2.56 24.31 1.02 24.31 1.02 24.05 0 23.95 0 23.91 0 23.91 0 23.51 0 23.51 0 23.11 0 23.11 0 22.7 0 22.7 0 22.3 0 22.3 0 22.1 0 22.3 0.77 22.3 0.77" fill="url(#무제_그라디언트_2-8)"/>
        <polygon points="25.52 0.02 25.92 1.57 25.92 1.57 26.33 3.11 26.33 3.11 26.44 3.56 26.73 4.66 26.73 4.66 27.13 6.2 27.13 6.2 27.18 6.37 27.53 7.74 27.53 7.74 27.94 9.29 27.94 9.29 28.15 10.11 28.34 10.83 28.34 10.83 28.74 12.38 28.74 12.38 28.88 12.92 29.14 13.92 29.14 13.92 29.55 15.46 29.55 15.46 29.55 14.32 29.55 15.46 29.86 16.64 29.86 16.66 29.95 17.01 29.95 17.01 30.23 18.06 30.35 18.55 30.59 19.47 30.75 20.09 31.16 21.64 31.56 23.18 31.96 24.73 32.36 26.27 32.77 27.82 33.17 29.36 33.57 30.9 33.98 32.45 34.38 33.99 34.78 35.53 34.88 35.9 35.18 34.72 35.59 33.18 35.85 32.16 35.59 31.15 35.18 29.6 34.78 28.06 34.38 26.52 33.98 24.97 33.57 23.43 33.17 21.88 32.77 20.34 32.36 18.8 31.96 17.25 31.57 15.73 31.56 15.71 31.2 14.33 31.16 14.16 31.16 14.16 30.83 12.92 30.75 12.62 30.75 12.62 30.35 11.07 30.35 11.07 29.95 9.53 29.95 9.53 29.95 14.32 29.94 9.53 29.85 9.21 29.86 9.18 29.55 7.99 29.55 7.99 29.14 6.44 29.14 6.44 29.12 6.37 28.74 4.9 28.74 4.9 28.34 3.35 28.34 3.35 28.15 2.63 27.94 1.81 27.94 1.81 27.53 0.27 27.53 0.27 27.46 0 27.37 0 27.13 0 27.13 0 26.73 0 26.73 0 26.33 0 26.33 0 25.92 0 25.92 0 25.52 0 25.52 0 25.51 0 25.52 0.02 25.52 0.02" fill="url(#무제_그라디언트_2-9)"/>
        <polygon points="29.14 0.82 29.55 2.36 29.55 2.36 29.86 3.55 29.95 3.9 29.95 3.9 30.35 5.45 30.35 5.45 30.59 6.37 30.75 6.99 30.75 6.99 31.16 8.54 31.16 8.54 31.56 10.08 31.56 10.08 31.57 10.11 31.93 11.51 31.96 11.62 32.3 12.92 32.36 13.17 32.77 14.71 33.17 16.26 33.57 17.8 33.98 19.34 34.38 20.89 34.78 22.43 35.18 23.98 35.59 25.52 35.99 27.06 36.39 28.61 36.58 29.35 36.79 28.55 37.2 27 37.56 25.61 37.2 24.22 36.79 22.68 36.39 21.13 35.99 19.59 35.59 18.04 35.18 16.5 34.78 14.96 34.38 13.41 33.98 11.87 33.57 10.32 33.27 9.18 33.17 8.78 32.91 7.77 32.77 7.24 32.77 7.24 32.54 6.37 32.36 5.69 32.36 5.69 31.96 4.15 31.96 4.15 31.57 2.63 31.56 2.6 31.56 2.6 31.16 1.06 31.16 1.06 30.88 0 30.78 0 30.75 0 30.75 0 30.75 0 30.35 0 30.35 0 30.35 0 29.95 0 29.95 0 29.95 0 29.8 0 29.55 0 29.55 0 29.14 0 29.14 0 28.93 0 29.14 0.82 29.14 0.82" fill="url(#무제_그라디언트_2-10)"/>
        <polygon points="30.35 50.38 29.95 48.84 29.55 47.3 29.14 45.75 28.74 44.21 28.34 42.66 27.94 41.12 27.53 39.58 27.13 38.03 26.73 36.49 26.44 35.39 26.33 34.94 26.07 33.98 25.92 33.4 25.92 33.4 25.71 32.57 25.52 31.86 25.52 31.86 25.12 30.31 25.12 30.31 24.73 28.84 24.71 28.77 24.71 28.77 24.31 27.22 24.31 27.22 24 26.02 23.91 25.68 23.91 25.68 23.51 24.14 23.51 24.14 23.11 22.59 23.11 22.59 23.03 22.29 22.7 21.05 22.7 21.05 22.3 19.5 22.3 19.45 22.3 19.45 22.29 19.48 21.9 17.96 21.9 17.96 21.5 16.42 21.5 16.42 21.32 15.74 21.09 14.87 21.09 14.87 20.69 13.33 20.69 13.33 20.58 12.92 20.29 11.78 20.29 11.78 19.88 10.24 19.88 10.24 19.61 9.19 19.48 8.7 19.48 8.7 19.08 7.15 19.08 7.15 18.88 6.37 18.68 5.61 18.68 5.61 18.27 4.07 18.27 4.06 17.9 2.63 17.87 2.52 17.87 2.52 17.47 0.98 17.47 0.98 17.21 0 17.12 0 17.07 0 17.07 0 16.66 0 16.66 0 16.26 0 16.26 0 15.86 0 15.86 0 15.46 0 15.46 0 15.27 0 15.46 0.72 15.46 0.72 15.86 2.27 15.86 2.27 16.19 3.55 16.26 3.81 16.26 3.81 16.66 5.36 16.66 5.36 16.93 6.37 17.07 6.9 17.07 6.9 17.47 8.44 17.47 8.44 17.87 9.99 17.87 9.99 17.9 10.11 18.27 11.53 18.27 11.53 18.64 12.92 18.68 13.08 18.68 13.08 19.08 14.62 19.08 14.62 19.48 16.16 19.48 16.16 19.61 16.66 19.88 17.71 19.88 17.71 20.29 19.25 20.29 19.25 20.34 19.47 20.69 20.8 20.69 20.8 21.09 22.34 21.09 22.34 21.32 23.21 21.5 23.89 21.5 23.89 21.9 25.43 21.9 25.43 22.05 26.02 22.3 26.98 22.3 26.98 22.7 28.52 22.7 28.52 23.03 29.76 23.11 30.06 23.11 30.06 23.51 31.61 23.51 31.61 23.76 32.57 23.91 33.15 23.91 33.15 24.31 34.7 24.31 34.7 24.71 36.24 24.71 36.24 24.73 36.31 25.1 37.72 25.12 37.78 25.47 39.12 25.52 39.33 25.92 40.87 26.33 42.42 26.73 43.96 27.13 45.51 27.53 47.05 27.94 48.59 28.34 50.14 28.74 51.68 29.14 53.23 29.55 54.77 29.75 55.55 29.95 54.79 30.35 53.25 30.73 51.82 30.35 50.38" fill="url(#무제_그라디언트_2-11)"/>
        <polygon points="32.36 0.07 32.77 1.61 32.77 1.61 33.17 3.15 33.17 3.15 33.27 3.55 33.57 4.7 33.57 4.7 33.64 4.96 33.98 6.24 34.01 6.37 34.38 7.79 34.78 9.33 35.18 10.87 35.59 12.42 35.99 13.96 36.39 15.51 36.79 17.05 37.2 18.59 37.6 20.14 38 21.68 38.29 22.8 38.4 22.37 38.81 20.83 39.21 19.28 39.27 19.06 39.21 18.84 38.81 17.29 38.4 15.75 38 14.21 37.6 12.66 37.2 11.12 36.79 9.57 36.39 8.03 35.99 6.49 35.59 4.94 35.18 3.4 34.98 2.63 34.78 1.85 34.62 1.22 34.38 0.31 34.38 0.31 34.3 0 34.2 0 33.98 0 33.98 0 33.98 0 33.57 0 33.57 0 33.57 0 33.17 0 33.17 0 33.17 0 32.77 0 32.77 0 32.77 0 32.36 0 32.36 0 32.36 0 32.35 0 32.36 0.07 32.36 0.07" fill="url(#무제_그라디언트_2-12)"/>
        <polygon points="22.3 32.54 22.29 32.57 22.3 32.6 22.3 32.54" fill="url(#무제_그라디언트_2-13)"/>
        <polygon points="33.98 52.46 34.14 51.82 34.38 50.91 34.38 50.91 34.78 49.37 34.78 49.37 34.88 49 35.18 47.83 35.18 47.83 35.59 46.28 35.59 46.28 35.85 45.27 35.99 44.74 35.99 44.74 36.39 43.19 36.39 43.19 36.58 42.45 36.79 41.65 36.79 41.65 37.2 40.1 37.2 40.1 37.56 38.71 37.6 38.56 37.6 38.56 38 37.02 38 37.02 38.29 35.9 38.4 35.47 38.4 35.47 38.81 33.93 38.81 33.93 39.21 32.38 39.21 32.38 39.27 32.16 39.61 30.84 39.61 30.84 40 29.35 40.01 29.3 40.01 29.3 40.42 27.75 40.42 27.75 40.82 26.21 40.82 26.21 40.98 25.61 41.22 24.66 41.22 24.66 41.34 24.2 41.62 23.12 41.71 22.8 42.03 21.58 42.43 20.03 42.83 18.49 43.23 16.95 43.64 15.4 44.04 13.86 44.44 12.31 44.84 10.77 45.25 9.22 45.65 7.68 45.99 6.37 45.65 5.06 45.25 3.52 45.02 2.63 44.84 3.29 44.44 4.84 44.04 6.38 43.64 7.93 43.23 9.47 42.83 11.01 42.43 12.56 42.03 14.1 41.62 15.64 41.22 17.19 40.82 18.73 40.73 19.06 40.42 20.28 40.37 20.47 40.01 21.82 40.01 21.82 40 21.87 39.61 23.36 39.61 23.37 39.21 24.91 39.21 24.91 39.02 25.61 38.81 26.45 38.81 26.45 38.4 28 38.4 28 38.29 28.43 38 29.54 38 29.54 37.6 31.09 37.6 31.09 37.32 32.16 37.2 32.63 37.2 32.63 36.79 34.17 36.79 34.17 36.58 34.98 36.39 35.72 36.39 35.72 35.99 37.26 35.99 37.26 35.61 38.71 35.59 38.8 35.59 38.8 35.18 40.35 35.18 40.35 34.88 41.53 34.78 41.89 34.78 41.89 34.38 43.44 34.38 43.44 33.98 44.98 33.98 44.98 33.9 45.27 33.57 46.52 33.57 46.52 33.17 48.07 33.17 48.07 33.17 48.08 32.77 49.61 32.77 49.61 32.36 51.16 32.36 51.16 32.19 51.82 31.96 52.7 31.96 52.7 31.56 54.24 31.56 54.24 31.46 54.63 31.16 55.79 31.16 55.79 30.75 57.33 30.75 57.33 30.53 58.18 30.75 58.18 30.75 58.18 30.75 58.18 31.16 58.18 31.16 58.18 31.16 58.18 31.56 58.18 31.56 58.18 31.56 58.18 31.96 58.18 31.96 58.18 31.96 58.18 32.36 58.18 32.36 58.18 32.36 58.18 32.38 58.18 32.48 58.18 32.77 57.09 32.77 57.09 33.17 55.55 33.17 55.56 33.17 55.56 33.17 55.55 33.57 54 33.57 54 33.98 52.46 33.98 52.46" fill="url(#무제_그라디언트_2-14)"/>
        <polygon points="37.6 51.66 37.6 51.66 38 50.12 38 50.12 38.29 49 38.4 48.58 38.4 48.58 38.81 47.03 38.81 47.03 39.21 45.49 39.21 45.49 39.27 45.27 39.61 43.94 39.61 43.94 40 42.45 40.01 42.4 40.01 42.4 40.42 40.86 40.42 40.86 40.82 39.31 40.82 39.31 40.98 38.71 41.22 37.77 41.22 37.77 41.62 36.22 41.62 36.22 41.71 35.9 42.03 34.68 42.03 34.68 42.43 33.14 42.43 33.14 42.68 32.16 42.83 31.59 42.83 31.59 43.05 30.76 43.23 30.05 43.42 29.35 43.64 28.5 44.04 26.96 44.44 25.42 44.84 23.87 45.25 22.33 45.65 20.78 46.05 19.24 46.45 17.7 46.86 16.15 47.26 14.61 47.66 13.06 47.7 12.92 47.66 12.78 47.26 11.24 46.86 9.69 46.73 9.19 46.45 10.22 46.05 11.76 45.65 13.31 45.25 14.85 44.84 16.4 44.44 17.94 44.04 19.48 43.64 21.03 43.23 22.57 42.83 24.12 42.44 25.61 42.43 25.66 42.08 27.02 42.03 27.2 42.03 27.2 41.71 28.43 41.62 28.75 41.62 28.75 41.22 30.29 41.22 30.29 40.82 31.84 40.82 31.84 40.73 32.16 40.42 33.38 40.42 33.38 40.01 34.92 40.01 34.92 40 34.98 39.61 36.47 39.61 36.47 39.21 38.01 39.21 38.01 39.02 38.71 38.81 39.56 38.81 39.56 38.4 41.1 38.4 41.1 38.29 41.53 38 42.64 38 42.64 37.6 44.19 37.6 44.19 37.32 45.27 37.2 45.73 37.2 45.73 36.79 47.28 36.79 47.28 36.58 48.08 36.39 48.82 36.39 48.82 35.99 50.36 35.99 50.36 35.61 51.82 35.59 51.91 35.59 51.91 35.18 53.45 35.18 53.45 34.88 54.63 34.78 55 34.78 55 34.38 56.54 34.38 56.54 33.98 58.08 33.98 58.08 33.95 58.18 33.98 58.18 33.98 58.18 33.98 58.18 34.38 58.18 34.38 58.18 34.38 58.18 34.78 58.18 34.78 58.18 34.78 58.18 34.93 58.18 35.18 58.18 35.18 58.18 35.59 58.18 35.59 58.18 35.8 58.18 35.9 58.18 35.99 57.84 35.99 57.84 36.39 56.3 36.39 56.3 36.58 55.55 36.79 54.75 36.79 54.75 37.2 53.21 37.2 53.21 37.56 51.82 37.6 51.66" fill="url(#무제_그라디언트_2-15)"/>
        <polygon points="40.82 52.41 40.98 51.82 41.22 50.87 41.22 50.87 41.62 49.33 41.62 49.33 41.71 49 42.03 47.78 42.03 47.78 42.43 46.24 42.43 46.24 42.68 45.27 42.83 44.7 42.83 44.7 43.23 43.15 43.23 43.15 43.42 42.45 43.64 41.61 43.64 41.61 44.04 40.06 44.04 40.06 44.39 38.71 44.44 38.52 44.44 38.52 44.76 37.31 44.84 36.98 45.13 35.9 45.25 35.43 45.65 33.89 46.05 32.34 46.45 30.8 46.86 29.25 47.26 27.71 47.66 26.17 48.06 24.62 48.47 23.08 48.87 21.54 49.27 19.99 49.41 19.48 49.27 18.96 48.87 17.41 48.47 15.87 48.43 15.74 48.06 17.15 47.66 18.69 47.26 20.23 46.86 21.78 46.45 23.32 46.05 24.87 45.65 26.41 45.25 27.95 44.84 29.5 44.44 31.04 44.15 32.16 44.04 32.59 43.78 33.57 43.64 34.13 43.64 34.13 43.42 34.98 43.23 35.67 43.23 35.67 42.83 37.22 42.83 37.22 42.44 38.71 42.43 38.76 42.43 38.76 42.03 40.31 42.03 40.31 41.71 41.53 41.62 41.85 41.62 41.85 41.22 43.4 41.22 43.4 40.82 44.94 40.82 44.94 40.73 45.27 40.42 46.48 40.42 46.48 40.01 48.03 40.01 48.03 40 48.08 39.61 49.57 39.61 49.57 39.21 51.12 39.21 51.12 39.02 51.82 38.81 52.66 38.81 52.66 38.4 54.2 38.4 54.2 38.29 54.63 38 55.75 38 55.75 37.6 57.29 37.6 57.29 37.37 58.18 37.6 58.18 37.6 58.18 38 58.18 38 58.18 38.4 58.18 38.4 58.18 38.81 58.18 38.81 58.18 39.21 58.18 39.21 58.18 39.22 58.18 39.31 58.18 39.61 57.05 39.61 57.05 40 55.55 40.01 55.5 40.01 55.5 40.42 53.96 40.42 53.96 40.82 52.41 40.82 52.41" fill="url(#무제_그라디언트_2-16)"/>
        <polygon points="44.44 51.62 44.44 51.62 44.84 50.08 44.84 50.08 45.13 49 45.25 48.53 45.25 48.53 45.65 46.99 45.65 46.99 46.05 45.44 46.05 45.44 46.1 45.26 46.45 43.9 46.45 43.9 46.47 43.86 46.83 42.45 46.86 42.36 47.26 40.81 47.66 39.27 48.06 37.72 48.47 36.18 48.87 34.63 49.27 33.09 49.63 31.71 49.99 30.34 50.35 28.96 50.71 27.59 51.07 26.21 51.12 26.02 51.07 25.84 50.71 24.46 50.35 23.09 50.14 22.29 49.99 22.87 49.63 24.24 49.27 25.62 48.87 27.16 48.47 28.71 48.06 30.25 47.66 31.79 47.26 33.34 46.86 34.88 46.45 36.43 46.05 37.97 45.86 38.71 45.65 39.51 45.49 40.12 45.25 41.06 45.25 41.06 45.13 41.53 44.84 42.6 44.84 42.6 44.44 44.15 44.44 44.15 44.15 45.27 44.04 45.69 44.04 45.69 43.64 47.23 43.64 47.23 43.42 48.08 43.23 48.78 43.23 48.78 42.83 50.32 42.83 50.32 42.44 51.82 42.43 51.87 42.43 51.87 42.03 53.41 42.03 53.41 41.71 54.63 41.62 54.95 41.62 54.95 41.22 56.5 41.22 56.5 40.82 58.04 40.82 58.04 40.78 58.18 40.82 58.18 40.82 58.18 41.22 58.18 41.22 58.18 41.62 58.18 41.62 58.18 42.03 58.18 42.03 58.18 42.43 58.18 42.43 58.18 42.63 58.18 42.73 58.18 42.83 57.8 42.83 57.8 43.23 56.25 43.23 56.25 43.42 55.55 43.64 54.71 43.64 54.71 44.04 53.16 44.04 53.16 44.39 51.82 44.44 51.62" fill="url(#무제_그라디언트_2-17)"/>
        <polygon points="47.66 52.36 47.81 51.81 48.06 50.82 48.06 50.82 48.17 50.41 48.47 49.27 48.54 49 48.87 47.73 49.27 46.19 49.63 44.81 49.99 43.44 50.35 42.06 50.71 40.68 51.07 39.31 51.42 37.93 51.78 36.56 52.14 35.18 52.5 33.8 52.82 32.57 52.5 31.34 52.14 29.96 51.85 28.84 51.78 29.09 51.42 30.46 51.07 31.84 50.71 33.21 50.35 34.59 49.99 35.97 49.63 37.34 49.27 38.72 48.87 40.26 48.47 41.81 48.06 43.35 47.66 44.9 47.57 45.26 47.26 46.44 47.2 46.67 46.86 47.98 46.86 47.98 46.83 48.08 46.45 49.53 46.45 49.53 46.05 51.07 46.05 51.07 45.86 51.82 45.65 52.62 45.65 52.62 45.25 54.16 45.25 54.16 45.13 54.63 44.84 55.7 44.84 55.7 44.44 57.25 44.44 57.25 44.2 58.18 44.44 58.18 44.44 58.18 44.84 58.18 44.84 58.18 45.06 58.18 45.25 58.18 45.25 58.18 45.65 58.18 45.65 58.18 46.05 58.18 46.05 58.18 46.05 58.18 46.15 58.18 46.45 56.99 46.45 56.99 46.83 55.55 46.86 55.45 46.86 55.45 47.26 53.91 47.26 53.91 47.66 52.36 47.66 52.36" fill="url(#무제_그라디언트_2-18)"/>
        <polygon points="53.94 36.84 53.58 35.47 53.56 35.39 53.22 36.68 52.86 38.06 52.5 39.43 52.14 40.81 51.78 42.18 51.42 43.56 51.07 44.94 50.71 46.31 50.35 47.69 49.99 49.06 49.63 50.44 49.27 51.81 49.27 51.81 48.91 53.22 48.87 53.36 48.87 53.36 48.54 54.63 48.47 54.9 48.47 54.9 48.06 56.45 48.06 56.45 47.66 57.99 47.66 57.99 47.61 58.18 47.66 58.18 47.66 58.18 48.06 58.18 48.06 58.18 48.47 58.18 48.47 58.18 48.87 58.18 49.27 58.18 49.27 58.18 49.47 58.18 49.56 58.18 49.63 57.91 49.63 57.91 49.88 56.96 49.99 56.54 50.25 55.55 50.35 55.16 50.71 53.79 51.07 52.41 51.42 51.04 51.78 49.66 52.14 48.28 52.5 46.91 52.86 45.53 53.22 44.16 53.58 42.78 53.94 41.41 54.3 40.03 54.53 39.12 54.3 38.22 53.94 36.84" fill="url(#무제_그라디언트_2-19)"/>
        <polygon points="30.75 51.71 30.73 51.82 30.75 51.93 30.75 51.71" fill="url(#무제_그라디언트_2-20)"/>
        <polygon points="62.55 56.76 62.19 55.38 61.83 54.01 61.47 52.63 61.11 51.26 60.75 49.88 60.39 48.51 60.03 47.13 59.68 45.75 59.32 44.38 58.96 43 58.6 41.63 58.24 40.25 57.88 38.87 57.52 37.5 57.16 36.12 56.97 35.39 56.81 34.75 56.61 33.98 56.45 33.37 56.24 32.57 56.09 32 55.73 30.62 55.37 29.24 55.27 28.84 55.01 27.87 54.65 26.49 54.53 26.02 54.3 25.12 53.94 23.74 53.58 22.36 53.56 22.29 53.22 20.99 52.86 19.61 52.82 19.47 52.5 18.24 52.14 16.86 51.85 15.74 51.78 15.49 51.42 14.11 51.12 12.92 51.07 12.73 50.71 11.36 50.35 9.98 50.14 9.19 49.99 8.61 49.63 7.23 49.41 6.37 49.27 5.86 48.87 4.31 48.47 2.77 48.43 2.63 48.06 1.22 47.75 0 47.66 0 47.66 0 47.65 0 47.26 0 46.86 0 46.86 0 46.45 0 46.45 0 46.05 0 46.05 0 45.8 0 46.05 0.98 46.45 2.52 46.73 3.56 46.86 4.07 47.26 5.61 47.46 6.37 47.66 7.16 48.06 8.7 48.43 10.11 48.47 10.24 48.87 11.79 49.17 12.92 49.27 13.33 49.63 14.71 49.99 16.08 50.14 16.66 50.35 17.46 50.71 18.83 50.88 19.48 51.07 20.21 51.42 21.59 51.78 22.96 51.85 23.21 52.14 24.34 52.5 25.71 52.58 26.02 52.86 27.09 53.22 28.46 53.56 29.76 53.58 29.84 53.94 31.22 54.29 32.57 54.3 32.59 54.65 33.97 55.01 35.34 55.27 36.31 55.37 36.72 55.63 37.72 55.73 38.1 56 39.12 56.09 39.47 56.45 40.85 56.81 42.22 57.16 43.6 57.52 44.98 57.88 46.35 58.24 47.73 58.6 49.1 58.96 50.48 59.32 51.85 59.68 53.23 60.03 54.6 60.39 55.98 60.75 57.36 60.97 58.18 61.11 58.18 61.47 58.18 61.83 58.18 62.19 58.18 62.55 58.18 62.91 58.18 62.92 58.18 62.91 58.13 62.55 56.76" fill="url(#무제_그라디언트_2-21)"/>
        <polygon points="65.77 56.04 65.42 54.66 65.06 53.29 64.7 51.91 64.34 50.53 63.98 49.16 63.62 47.78 63.26 46.41 62.91 45.03 62.55 43.66 62.19 42.28 61.83 40.9 61.47 39.53 61.11 38.15 60.75 36.78 60.39 35.4 60.03 34.02 59.68 32.65 59.32 31.27 58.96 29.9 58.68 28.84 58.6 28.52 58.31 27.43 58.24 27.15 57.95 26.02 57.88 25.77 57.52 24.39 57.16 23.02 56.97 22.28 56.81 21.64 56.45 20.27 56.24 19.47 56.09 18.89 55.73 17.52 55.37 16.14 55.27 15.73 55.01 14.77 54.65 13.39 54.53 12.92 54.3 12.01 53.94 10.64 53.58 9.26 53.56 9.19 53.22 7.89 52.86 6.51 52.82 6.37 52.5 5.13 52.14 3.76 51.85 2.63 51.78 2.38 51.42 1.01 51.16 0 51.07 0 51.07 0 50.71 0 50.35 0 50.2 0 49.99 0 49.99 0 49.63 0 49.63 0 49.27 0 49.27 0 49.21 0 49.27 0.23 49.63 1.6 49.99 2.98 50.14 3.56 50.35 4.36 50.71 5.73 50.88 6.37 51.07 7.11 51.42 8.48 51.78 9.86 51.85 10.11 52.14 11.23 52.5 12.61 52.58 12.92 52.86 13.99 53.22 15.36 53.56 16.66 53.58 16.74 53.94 18.11 54.29 19.47 54.3 19.49 54.65 20.86 55.01 22.24 55.27 23.21 55.37 23.62 55.73 24.99 56 26.02 56.09 26.37 56.45 27.74 56.81 29.12 56.97 29.76 57.16 30.5 57.34 31.17 57.52 31.87 57.71 32.57 57.88 33.25 58.24 34.62 58.6 36 58.96 37.37 59.32 38.75 59.68 40.13 60.03 41.5 60.39 42.88 60.75 44.25 61.11 45.63 61.47 47.01 61.83 48.38 62.19 49.76 62.55 51.13 62.91 52.51 63.26 53.88 63.62 55.26 63.98 56.63 64.34 58.01 64.39 58.18 64.7 58.18 65.06 58.18 65.42 58.18 65.47 58.18 65.77 58.18 66.13 58.18 66.33 58.18 66.13 57.41 65.77 56.04" fill="url(#무제_그라디언트_2-21)"/>
        <polygon points="69.36 56.69 69 55.32 68.64 53.94 68.29 52.56 67.93 51.19 67.57 49.81 67.21 48.44 66.85 47.06 66.49 45.69 66.13 44.31 65.77 42.94 65.42 41.56 65.06 40.18 64.7 38.81 64.34 37.43 63.98 36.06 63.62 34.68 63.26 33.3 62.91 31.93 62.55 30.55 62.19 29.18 61.83 27.8 61.47 26.43 61.11 25.05 60.75 23.67 60.39 22.3 60.39 22.27 60.39 22.28 60.03 20.92 60.02 20.88 59.68 19.55 59.66 19.47 59.32 18.17 58.96 16.8 58.68 15.73 58.6 15.42 58.24 14.04 57.95 12.92 57.88 12.67 57.52 11.29 57.16 9.92 56.97 9.18 56.81 8.54 56.45 7.17 56.24 6.37 56.09 5.79 55.73 4.41 55.37 3.04 55.27 2.63 55.01 1.66 54.65 0.29 54.58 0 54.49 0 54.3 0 53.94 0 53.58 0 53.22 0 52.86 0 52.63 0 52.86 0.88 53.22 2.26 53.56 3.56 53.58 3.63 53.94 5.01 54.29 6.37 54.3 6.39 54.65 7.76 55.01 9.14 55.27 10.11 55.37 10.51 55.73 11.89 56 12.92 56.09 13.27 56.45 14.64 56.81 16.02 56.97 16.66 57.16 17.39 57.52 18.77 57.71 19.47 57.88 20.14 58.24 21.52 58.6 22.89 58.68 23.21 58.96 24.27 59.05 24.61 59.32 25.65 59.41 26.02 59.68 27.02 60.03 28.4 60.39 29.77 60.75 31.15 61.11 32.53 61.47 33.9 61.83 35.28 62.19 36.65 62.55 38.03 62.91 39.41 63.26 40.78 63.62 42.16 63.98 43.53 64.34 44.91 64.7 46.28 65.06 47.66 65.42 49.03 65.77 50.41 66.13 51.79 66.49 53.16 66.85 54.54 67.21 55.91 67.57 57.29 67.8 58.18 67.93 58.18 68.29 58.18 68.64 58.18 69 58.18 69.36 58.18 69.72 58.18 69.75 58.18 69.72 58.07 69.36 56.69" fill="url(#무제_그라디언트_2-21)"/>
        <polygon points="70.44 34.62 70.08 33.24 69.72 31.86 69.36 30.49 69 29.11 68.64 27.74 68.29 26.36 67.93 24.98 67.57 23.61 67.21 22.23 66.85 20.86 66.49 19.48 66.13 18.11 65.77 16.73 65.42 15.35 65.06 13.98 64.7 12.6 64.34 11.23 63.98 9.85 63.81 9.18 63.62 8.47 63.44 7.77 63.26 7.1 63.07 6.37 62.91 5.72 62.55 4.35 62.19 2.97 62.1 2.63 61.83 1.6 61.47 0.22 61.41 0 61.32 0 61.11 0 60.75 0 60.39 0 60.03 0 59.68 0 59.46 0 59.68 0.82 60.03 2.19 60.39 3.55 60.39 3.57 60.75 4.94 61.11 6.32 61.12 6.37 61.47 7.7 61.83 9.07 62.1 10.11 62.19 10.45 62.47 11.51 62.55 11.82 62.83 12.92 62.91 13.2 63.26 14.57 63.62 15.95 63.98 17.33 64.34 18.7 64.7 20.08 65.06 21.45 65.42 22.83 65.77 24.21 66.13 25.58 66.49 26.96 66.85 28.33 67.21 29.71 67.57 31.09 67.93 32.46 68.29 33.84 68.64 35.21 69 36.59 69.36 37.96 69.72 39.34 70.08 40.72 70.44 42.09 70.8 43.47 74.63 58.18 76.58 58.18 70.8 35.99 70.44 34.62" fill="url(#무제_그라디언트_2-21)"/>
        <polygon points="70.44 47.72 70.08 46.34 69.72 44.97 69.36 43.59 69 42.22 68.64 40.84 68.29 39.46 67.93 38.09 67.57 36.71 67.21 35.34 66.85 33.96 66.49 32.58 66.13 31.21 65.77 29.83 65.42 28.46 65.06 27.08 64.7 25.7 64.34 24.33 63.98 22.95 63.62 21.58 63.26 20.2 62.91 18.83 62.55 17.45 62.19 16.07 62.1 15.73 61.83 14.7 61.73 14.32 61.47 13.32 61.36 12.92 61.11 11.95 60.75 10.57 60.39 9.2 60.39 9.16 60.39 9.18 60.03 7.82 59.68 6.44 59.66 6.37 59.32 5.07 58.96 3.69 58.68 2.63 58.6 2.32 58.24 0.94 58 0 57.9 0 57.88 0 57.52 0 57.16 0 56.81 0 56.45 0 56.09 0 56.05 0 56.09 0.16 56.45 1.54 56.81 2.91 56.97 3.55 57.16 4.29 57.52 5.67 57.71 6.37 57.88 7.04 58.24 8.42 58.6 9.79 58.68 10.1 58.96 11.17 59.32 12.54 59.41 12.92 59.68 13.92 60.03 15.3 60.39 16.66 60.39 16.67 60.75 18.05 60.76 18.06 61.11 19.42 61.12 19.47 61.47 20.8 61.83 22.17 62.19 23.55 62.55 24.93 62.91 26.3 63.26 27.68 63.62 29.05 63.98 30.43 64.34 31.8 64.7 33.18 65.06 34.56 65.42 35.93 65.77 37.31 66.13 38.68 66.49 40.06 66.85 41.44 67.21 42.81 67.57 44.19 67.93 45.56 68.29 46.94 68.64 48.31 69 49.69 69.36 51.06 69.72 52.44 70.08 53.82 70.44 55.19 70.8 56.57 71.22 58.18 73.17 58.18 70.8 49.09 70.44 47.72" fill="url(#무제_그라디언트_2-21)"/>
        <polygon points="70.8 22.89 70.44 21.51 70.08 20.14 69.72 18.76 69.36 17.38 69 16.01 68.64 14.63 68.29 13.26 67.93 11.88 67.57 10.51 67.21 9.13 66.85 7.75 66.49 6.38 66.13 5 65.77 3.63 65.51 2.63 65.42 2.25 65.15 1.22 65.06 0.87 64.83 0 64.73 0 64.7 0 64.34 0 63.98 0 63.62 0 63.26 0 62.91 0 62.88 0 62.91 0.1 63.26 1.47 63.62 2.85 63.81 3.55 63.98 4.22 64.17 4.96 64.34 5.6 64.54 6.37 64.7 6.97 65.06 8.35 65.42 9.73 65.77 11.1 66.13 12.48 66.49 13.85 66.85 15.23 67.21 16.61 67.57 17.98 67.93 19.36 68.29 20.73 68.64 22.11 69 23.48 69.36 24.86 69.72 26.24 70.08 27.61 70.44 28.99 70.8 30.36 78.05 58.18 80 58.18 70.8 22.89" fill="url(#무제_그라디언트_2-21)"/>
      </g>
    </g>
  </g>
</svg>
