<svg xmlns="http://www.w3.org/2000/svg" xmlns:xlink="http://www.w3.org/1999/xlink" width="512.67" height="80" viewBox="0 0 512.67 80">
  <defs>
    <linearGradient id="무제_그라디언트_14" data-name="무제 그라디언트 14" x1="-42.49" y1="40" x2="552.39" y2="40" gradientUnits="userSpaceOnUse">
      <stop offset="0" stop-color="#b721ff"/>
      <stop offset="1" stop-color="#21d4fd"/>
    </linearGradient>
  </defs>
  <g id="레이어_2" data-name="레이어 2">
    <g id="레이어_1-2" data-name="레이어 1">
      <g>
        <path d="M91.06,80H71.13V39.05c0-2,0-4.11.1-6.17s.14-4.12.2-6.18L54.69,80H36.26L19.63,26.7q.09,3.09.2,6.18c.06,2.06.1,4.12.1,6.17V80H0V0H27.1L41,43.44,43,50.26q1.2,3.95,2.49,8.82,1.29-4.87,2.49-8.82c.8-2.62,1.49-4.9,2.09-6.82L64,0h27.1Z" fill="url(#무제_그라디언트_14)"/>
        <path d="M180.52,80H158.7l-5.47-17.93h-28.6l-6,17.93H96.84l26.6-80h32.38ZM148.24,45.53,144,31.18q-1.1-3.78-2.24-7.92c-.77-2.75-1.41-5.39-1.94-7.92q-.9,3.8-2.2,7.92t-2.49,7.92l-4.88,14.35Z" fill="url(#무제_그라디언트_14)"/>
        <path d="M258.53,80H235.12L217.48,47.22c-.93-1.72-1.77-3.3-2.54-4.73s-1.51-2.84-2.24-4.23-1.48-2.79-2.24-4.19-1.58-2.95-2.44-4.68V80H186.3V0h23.41l22.22,40.75q1.89,3.28,3.34,5.87t3.33,6.08V0h19.93Z" fill="url(#무제_그라디언트_14)"/>
        <path d="M344.9,63.06a18.25,18.25,0,0,1-1.24,6.88,15.44,15.44,0,0,1-8.87,8.81A18.34,18.34,0,0,1,328,80H270.09V0H328a18.34,18.34,0,0,1,6.82,1.25,15.33,15.33,0,0,1,8.87,8.86,18.35,18.35,0,0,1,1.24,6.83Zm-19.92-1V18.13H290V62.07Z" fill="url(#무제_그라디언트_14)"/>
        <path d="M428.79,65.45A13.84,13.84,0,0,1,414.24,80H370.61a13.84,13.84,0,0,1-14.55-14.55V14.55A14.24,14.24,0,0,1,360.1,4a14.25,14.25,0,0,1,10.51-4h43.63a14.25,14.25,0,0,1,10.51,4,14.24,14.24,0,0,1,4,10.52Zm-19.93-3.38V17.93H376V62.07Z" fill="url(#무제_그라디언트_14)"/>
        <path d="M512.67,65.45A13.83,13.83,0,0,1,498.13,80H454.49A13.83,13.83,0,0,1,440,65.45V14.55A14.23,14.23,0,0,1,444,4a14.25,14.25,0,0,1,10.51-4h43.64a14.25,14.25,0,0,1,10.51,4,14.23,14.23,0,0,1,4,10.52Zm-19.92-3.38V17.93H459.87V62.07Z" fill="url(#무제_그라디언트_14)"/>
      </g>
    </g>
  </g>
</svg>
