<svg xmlns="http://www.w3.org/2000/svg" width="26.39" height="23" viewBox="0 0 26.39 23">
  <g id="레이어_2" data-name="레이어 2">
    <g id="레이어_1-2" data-name="레이어 1">
      <path d="M13.2,23a1,1,0,0,1-.54-.16,37.65,37.65,0,0,1-4-2.68A31.83,31.83,0,0,1,5,16.93a21.14,21.14,0,0,1-3.42-4.45A12,12,0,0,1,.14,8.6,7.37,7.37,0,0,1,.77,3.77,6.75,6.75,0,0,1,6.11.06a6.86,6.86,0,0,1,4.32.9A11.42,11.42,0,0,1,13.2,3.12c.26-.26.53-.52.81-.77a9.49,9.49,0,0,1,3.33-2A6.57,6.57,0,0,1,21.43.29,6.81,6.81,0,0,1,25.2,3a6.74,6.74,0,0,1,1.11,2.86,9.69,9.69,0,0,1-.71,5A16,16,0,0,1,23.16,15a24.78,24.78,0,0,1-2,2.26.75.75,0,1,1-1.05-1.06A26.55,26.55,0,0,0,22,14a14.58,14.58,0,0,0,2.21-3.7,8.13,8.13,0,0,0,.62-4.24A5.13,5.13,0,0,0,24,3.88,5.32,5.32,0,0,0,21,1.73a5.18,5.18,0,0,0-3.19.05A8.18,8.18,0,0,0,15,3.47c-.29.27-.58.55-.88.85l-.42.42a.74.74,0,0,1-1.09,0l-.08-.09A10.19,10.19,0,0,0,9.7,2.28a5.38,5.38,0,0,0-3.39-.73A5.23,5.23,0,0,0,2.1,4.47a5.93,5.93,0,0,0-.48,3.87,10.64,10.64,0,0,0,1.25,3.41A19.55,19.55,0,0,0,6,15.87,31.6,31.6,0,0,0,9.57,19a36.72,36.72,0,0,0,3.62,2.45l.34-.2.69-.42c.87-.57,1.66-1.12,2.42-1.68.58-.44,1.14-.88,1.66-1.33a.75.75,0,1,1,1,1.15c-.54.46-1.13.93-1.73,1.38-.78.59-1.6,1.15-2.5,1.74l-.74.45-.55.34A1.09,1.09,0,0,1,13.2,23Z" fill="#f2f2f2"/>
    </g>
  </g>
</svg>
