<svg xmlns="http://www.w3.org/2000/svg" width="19.78" height="19.78" viewBox="0 0 19.78 19.78">
  <g id="레이어_2" data-name="레이어 2">
    <g id="레이어_1-2" data-name="레이어 1">
      <g>
        <path d="M9.89,19.78a9.89,9.89,0,1,1,9.89-9.89A9.91,9.91,0,0,1,9.89,19.78Zm0-18.31a8.42,8.42,0,1,0,8.42,8.42A8.42,8.42,0,0,0,9.89,1.47Z" fill="#f2f2f2"/>
        <path d="M16.37,17.1a.75.75,0,0,1-.52-.21L2.92,4a.74.74,0,0,1,1-1L16.89,15.85a.73.73,0,0,1-.52,1.25Z" fill="#f2f2f2"/>
      </g>
    </g>
  </g>
</svg>
