<svg xmlns="http://www.w3.org/2000/svg" width="50" height="50" viewBox="0 0 50 50">
  <g id="레이어_2" data-name="레이어 2">
    <g id="레이어_1-2" data-name="레이어 1">
      <g>
        <circle cx="25.06" cy="15.98" r="8.93" fill="#b3b3b3"/>
        <path d="M39.44,36.77a22.07,22.07,0,0,0-14.38-5.24c-8.51,0-15.43,4.73-18.51,10.34a25,25,0,0,0,37-.12A18.19,18.19,0,0,0,39.44,36.77Z" fill="#b3b3b3"/>
        <path d="M9,34.9a24.8,24.8,0,0,1,32.08-.07,21.27,21.27,0,0,1,4.16,4.81A25,25,0,1,0,0,25,24.84,24.84,0,0,0,4.83,39.76,21.36,21.36,0,0,1,9,34.9Zm16-30.4A11.48,11.48,0,1,1,13.58,16,11.49,11.49,0,0,1,25.06,4.5Z" fill="#b3b3b3"/>
        <path d="M25.06,27.45A11.48,11.48,0,1,0,13.58,16,11.49,11.49,0,0,0,25.06,27.45Zm0-20.4A8.93,8.93,0,1,1,16.14,16,8.94,8.94,0,0,1,25.06,7.05Z" fill="#444"/>
        <path d="M41.1,34.83A24.8,24.8,0,0,0,9,34.9a21.36,21.36,0,0,0-4.19,4.86,24.74,24.74,0,0,0,1.72,2.11c3.08-5.61,10-10.34,18.51-10.34a22.07,22.07,0,0,1,14.38,5.24,18.19,18.19,0,0,1,4.11,5,24.62,24.62,0,0,0,1.71-2.11A21.27,21.27,0,0,0,41.1,34.83Z" fill="#444"/>
      </g>
    </g>
  </g>
</svg>
