<svg xmlns="http://www.w3.org/2000/svg" width="17" height="13.62" viewBox="0 0 17 13.62">
  <g id="레이어_2" data-name="레이어 2">
    <g id="레이어_1-2" data-name="레이어 1">
      <path d="M14,13.62a.8.8,0,0,1-.61-.27l-2.24-2.49H1.55A1.54,1.54,0,0,1,0,9.32V1.55A1.54,1.54,0,0,1,1.55,0h13.9A1.54,1.54,0,0,1,17,1.55V9.32a1.54,1.54,0,0,1-1.55,1.54h-.64V12.8a.83.83,0,0,1-.53.77A.79.79,0,0,1,14,13.62ZM1.55.63a.92.92,0,0,0-.92.92V9.32a.92.92,0,0,0,.92.92h9.72a.33.33,0,0,1,.23.1l2.33,2.59a.19.19,0,0,0,.22.05.18.18,0,0,0,.13-.18V10.55a.31.31,0,0,1,.32-.31h.95a.92.92,0,0,0,.92-.92V1.55a.92.92,0,0,0-.92-.92Z" fill="#bebebe"/>
    </g>
  </g>
</svg>
