<svg xmlns="http://www.w3.org/2000/svg" width="17" height="14.56" viewBox="0 0 17 14.56">
  <g id="레이어_2" data-name="레이어 2">
    <g id="레이어_1-2" data-name="레이어 1">
      <path d="M14.35,14.56a.88.88,0,0,1-.65-.3l-2.39-2.65h-10A1.31,1.31,0,0,1,0,10.3v-9A1.31,1.31,0,0,1,1.31,0H15.69A1.31,1.31,0,0,1,17,1.31v9a1.31,1.31,0,0,1-1.31,1.31h-.45v2.18a.58.58,0,0,1-.12.36A1,1,0,0,1,14.35,14.56ZM1.31.67a.64.64,0,0,0-.64.64v9a.64.64,0,0,0,.64.64h10.3l2.59,2.88a.22.22,0,0,0,.37-.15V10.94h1.12a.64.64,0,0,0,.64-.64v-9a.64.64,0,0,0-.64-.64Z" fill="#bebebe"/>
    </g>
  </g>
</svg>
