<svg xmlns="http://www.w3.org/2000/svg" width="15.96" height="15" viewBox="0 0 15.96 15">
  <g id="레이어_2" data-name="레이어 2">
    <g id="레이어_1-2" data-name="레이어 1">
      <g>
        <path d="M15.65,15H.31A.31.31,0,0,1,0,14.69V12.85a1.18,1.18,0,0,1,1.18-1.18h13.6A1.18,1.18,0,0,1,16,12.85v1.84A.31.31,0,0,1,15.65,15Zm-15-.63H15.34V12.85a.55.55,0,0,0-.56-.55H1.18a.55.55,0,0,0-.56.55Z" fill="#bebebe"/>
        <path d="M14.45,12.3H1.51A.31.31,0,0,1,1.2,12V6.78A6.78,6.78,0,0,1,12.78,2a6.72,6.72,0,0,1,2,4.79V12A.31.31,0,0,1,14.45,12.3ZM1.82,11.67H14.14V6.78a6.16,6.16,0,0,0-12.32,0Z" fill="#bebebe"/>
        <path d="M3.19,7.49a.31.31,0,0,1-.31-.31A5.49,5.49,0,0,1,8.37,1.69a.32.32,0,0,1,0,.63A4.87,4.87,0,0,0,3.5,7.18.31.31,0,0,1,3.19,7.49Z" fill="#bebebe"/>
      </g>
    </g>
  </g>
</svg>
