<svg xmlns="http://www.w3.org/2000/svg" width="18" height="18" viewBox="0 0 18 18">
  <g id="레이어_2" data-name="레이어 2">
    <g id="레이어_1-2" data-name="레이어 1">
      <g>
        <path d="M0,0H18V18H0Z" fill="none"/>
        <path d="M3,15V10.5a6,6,0,0,1,12,0V15h.75v1.5H2.25V15Zm1.5,0h9V10.5a4.5,4.5,0,0,0-9,0ZM8.25,1.5h1.5V3.75H8.25Zm6.58,2.11,1.06,1.06L14.3,6.26,13.24,5.2ZM2.11,4.67,3.17,3.61,4.76,5.2,3.7,6.26ZM5.25,10.5A3.75,3.75,0,0,1,9,6.75v1.5A2.25,2.25,0,0,0,6.75,10.5Z" fill="#f2f2f2"/>
      </g>
    </g>
  </g>
</svg>
