<svg xmlns="http://www.w3.org/2000/svg" width="18.49" height="18.78" viewBox="0 0 18.49 18.78">
  <g id="레이어_2" data-name="레이어 2">
    <g id="레이어_1-2" data-name="레이어 1">
      <path d="M7.21,18.61a.84.84,0,0,1-.52-.91.85.85,0,0,1,1-.7,8,8,0,0,0,8.06-3.79,7.45,7.45,0,0,0,.83-5.8,7.22,7.22,0,0,0-3.49-4.47.84.84,0,0,1,.51-1.57l3.55.4a.84.84,0,0,1-.19,1.67l-.69-.08A9,9,0,0,1,18.18,7a9.12,9.12,0,0,1-1,7.09,9.66,9.66,0,0,1-9.77,4.59Z" fill="#f2f2f2"/>
      <path d="M1.16,17a.84.84,0,0,1,.4-1.62l.69.08A9,9,0,0,1,.31,11.8a9.16,9.16,0,0,1,1-7.09A9.67,9.67,0,0,1,11.1.12a.82.82,0,0,1,.69,1,.84.84,0,0,1-1,.7A8,8,0,0,0,2.77,5.57a7.5,7.5,0,0,0-.84,5.8,7.28,7.28,0,0,0,3.49,4.47.84.84,0,0,1-.5,1.57L1.37,17Z" fill="#f2f2f2"/>
    </g>
  </g>
</svg>
