<svg xmlns="http://www.w3.org/2000/svg" width="19.57" height="20" viewBox="0 0 19.57 20">
  <g id="레이어_2" data-name="레이어 2">
    <g id="레이어_1-2" data-name="레이어 1">
      <g>
        <path d="M18.83,20a.74.74,0,0,1-.52-.22l-4.07-4.06a.76.76,0,0,1,0-1.05.74.74,0,0,1,1,0l4.07,4.07a.73.73,0,0,1,0,1A.74.74,0,0,1,18.83,20Z" fill="#999"/>
        <path d="M9,17.94A9,9,0,1,1,13.94,1.47a.75.75,0,0,1,.21,1,.74.74,0,0,1-1,.21A7.48,7.48,0,1,0,14.65,4a.74.74,0,0,1,1.11-1A9,9,0,0,1,9,17.94Z" fill="#999"/>
      </g>
    </g>
  </g>
</svg>
