<svg xmlns="http://www.w3.org/2000/svg" width="20" height="20" viewBox="0 0 20 20">
  <g id="레이어_2" data-name="레이어 2">
    <g id="레이어_1-2" data-name="레이어 1">
      <g>
        <path d="M11.16,20H8.84a1.14,1.14,0,0,1-1.12-1l-.22-1.5a8.16,8.16,0,0,1-1.06-.44L5.23,18a1.14,1.14,0,0,1-1.48-.11L2.11,16.25A1.14,1.14,0,0,1,2,14.77l.92-1.23a6.65,6.65,0,0,1-.42-1L1,12.28a1.14,1.14,0,0,1-1-1.12V8.84A1.14,1.14,0,0,1,1,7.72l1.55-.23a9.63,9.63,0,0,1,.42-1L2,5.23a1.14,1.14,0,0,1,.11-1.48L3.75,2.11A1.14,1.14,0,0,1,5.23,2L6.51,3a7,7,0,0,1,1-.41L7.72,1A1.14,1.14,0,0,1,8.84,0h2.32a1.14,1.14,0,0,1,1.12,1l.23,1.58a7,7,0,0,1,1,.41l1.28-1a1.14,1.14,0,0,1,1.48.11l1.64,1.64A1.14,1.14,0,0,1,18,5.23l-.94,1.26a9.63,9.63,0,0,1,.42,1L19,7.72a1.14,1.14,0,0,1,1,1.12v2.32a1.14,1.14,0,0,1-1,1.12l-1.53.22a6.65,6.65,0,0,1-.42,1L18,14.77a1.14,1.14,0,0,1-.11,1.48l-1.64,1.64a1.14,1.14,0,0,1-1.48.11l-1.21-.91a8.79,8.79,0,0,1-1.06.44L12.28,19A1.14,1.14,0,0,1,11.16,20ZM8.89,18.81h2.22l.32-2.21.38-.1a6.81,6.81,0,0,0,1.5-.63l.34-.19L15.44,17,17,15.44l-1.35-1.8.19-.34a6.67,6.67,0,0,0,.61-1.49l.1-.37,2.24-.33V8.89l-2.26-.33-.1-.37a6.93,6.93,0,0,0-.61-1.46l-.2-.34L17,4.56,15.44,3,13.6,4.36l-.34-.18a6.45,6.45,0,0,0-1.44-.6l-.38-.1-.33-2.29H8.89L8.56,3.48l-.38.1a6.45,6.45,0,0,0-1.44.6l-.34.18L4.56,3,3,4.56,4.36,6.39l-.2.34a6.93,6.93,0,0,0-.61,1.46l-.1.37-2.26.33v2.22l2.24.33.1.37a6.67,6.67,0,0,0,.61,1.49l.19.34L3,15.44,4.56,17l1.79-1.34.34.19a6.69,6.69,0,0,0,1.51.63l.37.1Z" fill="#999"/>
        <path d="M10,14.09A4.09,4.09,0,1,1,14.09,10,4.1,4.1,0,0,1,10,14.09Zm0-7A2.9,2.9,0,1,0,12.9,10,2.9,2.9,0,0,0,10,7.1Z" fill="#999"/>
      </g>
    </g>
  </g>
</svg>
