<svg xmlns="http://www.w3.org/2000/svg" width="20" height="12.64" viewBox="0 0 20 12.64">
  <g id="레이어_2" data-name="레이어 2">
    <g id="레이어_1-2" data-name="레이어 1">
      <g>
        <path d="M19.22,7.07H.78a.75.75,0,1,1,0-1.5H19.22a.75.75,0,1,1,0,1.5Z" fill="#f2f2f2"/>
        <path d="M19.22,12.64H.78a.75.75,0,1,1,0-1.5H19.22a.75.75,0,1,1,0,1.5Z" fill="#f2f2f2"/>
        <path d="M19.22,1.5H.78A.77.77,0,0,1,0,.75.77.77,0,0,1,.78,0H19.22A.77.77,0,0,1,20,.75.77.77,0,0,1,19.22,1.5Z" fill="#f2f2f2"/>
      </g>
    </g>
  </g>
</svg>
