<svg xmlns="http://www.w3.org/2000/svg" width="23" height="23" viewBox="0 0 23 23">
  <g id="레이어_2" data-name="레이어 2">
    <g id="레이어_1-2" data-name="레이어 1">
      <path d="M0,0H19a4,4,0,0,1,4,4V23a0,0,0,0,1,0,0H4a4,4,0,0,1-4-4V0A0,0,0,0,1,0,0Z" fill="#292a2d"/>
      <g>
        <path d="M17,12H6a.5.5,0,0,1,0-1H17a.5.5,0,0,1,0,1Z" fill="#f2f2f2"/>
        <path d="M17,15.71H6a.48.48,0,0,1-.47-.5.49.49,0,0,1,.47-.5H17a.49.49,0,0,1,.47.5A.48.48,0,0,1,17,15.71Z" fill="#f2f2f2"/>
        <path d="M17,8.29H6a.49.49,0,0,1-.47-.5A.48.48,0,0,1,6,7.29H17a.48.48,0,0,1,.47.5A.49.49,0,0,1,17,8.29Z" fill="#f2f2f2"/>
      </g>
    </g>
  </g>
</svg>
