<svg xmlns="http://www.w3.org/2000/svg" width="23.65" height="19.79" viewBox="0 0 23.65 19.79">
  <g id="레이어_2" data-name="레이어 2">
    <g id="레이어_1-2" data-name="레이어 1">
      <g>
        <path d="M16.42,19.79a5.88,5.88,0,0,1-3.58-1.28.73.73,0,0,1,.9-1.16,4.33,4.33,0,0,0,2.68,1,5,5,0,0,0,4-2.37,10.54,10.54,0,0,0,1.77-6.06,10.53,10.53,0,0,0-1.77-6.05,5,5,0,0,0-4-2.37,4.27,4.27,0,0,0-2.68,1,.73.73,0,0,1-.9-1.16A5.82,5.82,0,0,1,16.42,0a6.4,6.4,0,0,1,5.19,3,12.06,12.06,0,0,1,2,6.9,12.06,12.06,0,0,1-2,6.91A6.4,6.4,0,0,1,16.42,19.79Z" fill="#f2f2f2"/>
        <path d="M7.23,19.79A6.4,6.4,0,0,1,2,16.8,12,12,0,0,1,0,9.89,12,12,0,0,1,2,3,6.4,6.4,0,0,1,7.23,0a6.4,6.4,0,0,1,5.19,3,12,12,0,0,1,2,6.9,12,12,0,0,1-2,6.91A6.4,6.4,0,0,1,7.23,19.79Zm0-18.32a5,5,0,0,0-4,2.37A10.53,10.53,0,0,0,1.47,9.89,10.54,10.54,0,0,0,3.23,16a5,5,0,0,0,4,2.37,5,5,0,0,0,4-2.37A10.54,10.54,0,0,0,13,9.89a10.53,10.53,0,0,0-1.77-6.05A5,5,0,0,0,7.23,1.47Z" fill="#f2f2f2"/>
        <g>
          <ellipse cx="10.85" cy="9.89" rx="0.93" ry="1.95" fill="#f2f2f2"/>
          <path d="M10.85,12.58c-1,0-1.66-1.13-1.66-2.69s.69-2.68,1.66-2.68,1.66,1.13,1.66,2.68S11.81,12.58,10.85,12.58Zm0-3.74a2.48,2.48,0,0,0-.2,1.05,2.49,2.49,0,0,0,.2,1.06A2.7,2.7,0,0,0,11,9.89,2.68,2.68,0,0,0,10.85,8.84Z" fill="#f2f2f2"/>
        </g>
        <g>
          <ellipse cx="20.03" cy="9.89" rx="0.93" ry="1.95" fill="#f2f2f2"/>
          <path d="M20,12.58c-1,0-1.66-1.13-1.66-2.69s.7-2.68,1.66-2.68,1.66,1.13,1.66,2.68S21,12.58,20,12.58Zm0-3.74a2.68,2.68,0,0,0-.19,1.05A2.7,2.7,0,0,0,20,11a2.49,2.49,0,0,0,.2-1.06A2.48,2.48,0,0,0,20,8.84Z" fill="#f2f2f2"/>
        </g>
      </g>
    </g>
  </g>
</svg>
