<svg xmlns="http://www.w3.org/2000/svg" width="13.75" height="13.75" viewBox="0 0 13.75 13.75">
  <g id="레이어_2" data-name="레이어 2">
    <g id="레이어_1-2" data-name="레이어 1">
      <path d="M7.53,11.38H6.22v-1.3H7.53Zm-1-2.09c0-.16,0-.36,0-.61s0-.5-.07-.76,0-.51,0-.74,0-.42,0-.55V2.38H7.44V6.63c0,.14,0,.33,0,.56s0,.48,0,.74,0,.51-.07.75,0,.45,0,.61Z" fill="#f2f2f2"/>
      <path d="M6.88,13.75a6.88,6.88,0,1,1,6.87-6.87A6.88,6.88,0,0,1,6.88,13.75Zm0-13A6.13,6.13,0,1,0,13,6.88,6.14,6.14,0,0,0,6.88.75Z" fill="#f2f2f2"/>
    </g>
  </g>
</svg>
