<svg xmlns="http://www.w3.org/2000/svg" width="23" height="23" viewBox="0 0 23 23">
  <g id="레이어_2" data-name="레이어 2">
    <g id="레이어_1-2" data-name="레이어 1">
      <g>
        <path d="M6,21.93H6l-3.75-.16a1.07,1.07,0,0,1-1-1L1.07,17a.72.72,0,0,1,.2-.5l13-13a.68.68,0,0,1,1,0L19.48,7.8a.69.69,0,0,1,0,1l-13,13A.67.67,0,0,1,6,21.93Zm-3.46-1.5,3.19.13L18,8.28,14.72,5,2.44,17.24Zm-.27,0h0Z" fill="#f2f2f2"/>
        <path d="M20.72,7.24a.67.67,0,0,1-.48-.2L16,2.76a.67.67,0,0,1,0-1L17.12.64a2.2,2.2,0,0,1,3.1,0l2.14,2.14a2.2,2.2,0,0,1,0,3.1L21.2,7A.67.67,0,0,1,20.72,7.24Zm-3.33-5,3.33,3.33.68-.68a.83.83,0,0,0,0-1.19L19.26,1.6a.84.84,0,0,0-1.19,0Z" fill="#f2f2f2"/>
        <path d="M.68,23a.67.67,0,0,1-.48-.2.67.67,0,0,1,0-1l1.25-1.25a.68.68,0,1,1,1,1L1.16,22.8A.71.71,0,0,1,.68,23Z" fill="#f2f2f2"/>
      </g>
    </g>
  </g>
</svg>
