<svg xmlns="http://www.w3.org/2000/svg" width="22.9" height="23" viewBox="0 0 22.9 23">
  <g id="레이어_2" data-name="레이어 2">
    <g id="레이어_1-2" data-name="레이어 1">
      <g>
        <path d="M14.89,23H1.71A1.72,1.72,0,0,1,0,21.29V1.71A1.72,1.72,0,0,1,1.71,0H2.83a.65.65,0,0,1,.66.66.66.66,0,0,1-.66.66H1.71a.38.38,0,0,0-.39.39V21.29a.38.38,0,0,0,.39.39H14.89a.38.38,0,0,0,.39-.39v-5.4a.66.66,0,1,1,1.32,0v5.4A1.72,1.72,0,0,1,14.89,23Z" fill="#f2f2f2"/>
        <path d="M15.94,8.94a.66.66,0,0,1-.66-.66V1.71a.38.38,0,0,0-.39-.39H5.36A.66.66,0,0,1,4.7.66.65.65,0,0,1,5.36,0h9.53A1.72,1.72,0,0,1,16.6,1.71V8.28A.65.65,0,0,1,15.94,8.94Z" fill="#f2f2f2"/>
        <g>
          <path d="M11.55,20.17h0L8.6,20a1,1,0,0,1-.92-.91L7.56,16.2a.65.65,0,0,1,.19-.49l8.1-8.11a.67.67,0,0,1,.93,0l3.34,3.34a.68.68,0,0,1,.19.47.66.66,0,0,1-.19.46L12,20A.7.7,0,0,1,11.55,20.17ZM9,18.74l2.31.1,7.43-7.43L16.32,9,8.88,16.43Z" fill="#f2f2f2"/>
          <path d="M21,10.73a.63.63,0,0,1-.46-.2L17.19,7.2A.68.68,0,0,1,17,6.73a.66.66,0,0,1,.19-.46l.9-.91a1.85,1.85,0,0,1,2.61,0L22.36,7a1.83,1.83,0,0,1,0,2.6l-.9.9A.67.67,0,0,1,21,10.73Zm-2.4-4L21,9.14l.44-.44a.53.53,0,0,0,0-.74h0L19.76,6.29a.54.54,0,0,0-.37-.15.56.56,0,0,0-.37.15Z" fill="#f2f2f2"/>
          <path d="M7.38,21a.66.66,0,0,1-.47-1.12l1-1a.66.66,0,1,1,.93.93l-1,1A.62.62,0,0,1,7.38,21Z" fill="#f2f2f2"/>
        </g>
      </g>
    </g>
  </g>
</svg>
