<svg xmlns="http://www.w3.org/2000/svg" width="19.78" height="20" viewBox="0 0 19.78 20">
  <g id="레이어_2" data-name="레이어 2">
    <g id="레이어_1-2" data-name="레이어 1">
      <g>
        <path d="M13,20H1.49A1.49,1.49,0,0,1,0,18.51v-17A1.49,1.49,0,0,1,1.49,0h1A.58.58,0,0,1,3,.57a.58.58,0,0,1-.58.58h-1a.34.34,0,0,0-.34.34v17a.34.34,0,0,0,.34.34H13a.34.34,0,0,0,.34-.34V11.69a.58.58,0,0,1,1.15,0v6.82A1.49,1.49,0,0,1,13,20Z" fill="#f2f2f2"/>
        <path d="M13.86,6a.58.58,0,0,1-.57-.58v-4A.34.34,0,0,0,13,1.15H4.66A.58.58,0,0,1,4.08.57.58.58,0,0,1,4.66,0H13a1.49,1.49,0,0,1,1.49,1.49v4A.58.58,0,0,1,13.86,6Z" fill="#f2f2f2"/>
        <g>
          <path d="M8.17,17.43h0l-2.54-.11a.83.83,0,0,1-.8-.8L4.7,14a.54.54,0,0,1,.17-.43l8.78-8.79a.62.62,0,0,1,.41-.16h0a.58.58,0,0,1,.4.16l2.9,2.91a.56.56,0,0,1,0,.81L8.58,17.26A.57.57,0,0,1,8.17,17.43ZM5.94,16.19l2,.08,8.2-8.2L14.06,6l-8.2,8.2Z" fill="#f2f2f2"/>
          <path d="M18.12,7.48a.58.58,0,0,1-.4-.17l-2.9-2.9a.56.56,0,0,1,0-.81l.78-.79a1.62,1.62,0,0,1,2.27,0l1.44,1.45a1.6,1.6,0,0,1,0,2.27l-.78.78A.58.58,0,0,1,18.12,7.48ZM16,4l2.09,2.1.38-.38a.46.46,0,0,0,0-.65L17.06,3.62a.48.48,0,0,0-.65,0Z" fill="#f2f2f2"/>
          <path d="M4.55,18.15A.57.57,0,0,1,4.14,18a.58.58,0,0,1,0-.81L5,16.33a.57.57,0,0,1,.81.81L5,18A.57.57,0,0,1,4.55,18.15Z" fill="#f2f2f2"/>
        </g>
      </g>
    </g>
  </g>
</svg>
