<svg xmlns="http://www.w3.org/2000/svg" width="25.39" height="23" viewBox="0 0 25.39 23">
  <g id="레이어_2" data-name="레이어 2">
    <g id="레이어_1-2" data-name="레이어 1">
      <g>
        <path d="M13.55,2.17h-7a.75.75,0,0,1,0-1.5h7a.75.75,0,1,1,0,1.5Z" fill="#f2f2f2"/>
        <path d="M4.22,2.17H.75a.75.75,0,0,1,0-1.5H4.22a.75.75,0,1,1,0,1.5Z" fill="#f2f2f2"/>
        <path d="M10.65,5.92H.75a.75.75,0,0,1,0-1.5h9.9a.75.75,0,0,1,0,1.5Z" fill="#f2f2f2"/>
        <path d="M7.22,9.67H.75a.75.75,0,0,1,0-1.5H7.22a.75.75,0,1,1,0,1.5Z" fill="#f2f2f2"/>
        <path d="M3.92,13.42H.75a.75.75,0,1,1,0-1.49H3.92a.75.75,0,1,1,0,1.49Z" fill="#f2f2f2"/>
        <g>
          <path d="M8.44,21.94h0l-3.72-.16A1.13,1.13,0,0,1,3.61,20.7L3.45,17a.74.74,0,0,1,.22-.56L16.51,3.58a.74.74,0,0,1,1.06,0l4.24,4.24a.75.75,0,0,1,.22.53.79.79,0,0,1-.22.53L9,21.72A.75.75,0,0,1,8.44,21.94ZM5.09,20.3l3.05.13L20.23,8.35,17,5.16,5,17.24Zm-.34,0Z" fill="#f2f2f2"/>
          <path d="M23,7.39a.7.7,0,0,1-.52-.22L18.21,2.93a.75.75,0,0,1,0-1.06L19.48.61a2.09,2.09,0,0,1,2.95,0L24.78,3a2.09,2.09,0,0,1,0,3L23.51,7.17A.71.71,0,0,1,23,7.39Zm-3.18-5L23,5.59l.74-.74a.6.6,0,0,0,0-.84L21.37,1.67a.58.58,0,0,0-.84,0Z" fill="#f2f2f2"/>
          <path d="M3.13,23a.7.7,0,0,1-.52-.22.74.74,0,0,1,0-1.06l1.24-1.24a.75.75,0,1,1,1.06,1.06L3.66,22.78A.71.71,0,0,1,3.13,23Z" fill="#f2f2f2"/>
        </g>
      </g>
    </g>
  </g>
</svg>
